# Blender 4.0.1
# www.blender.org
mtllib part1.mtl
o gun_part_1
v 2.186292 0.803677 0.280649
v 2.288610 0.803677 0.280649
v 2.152595 0.903096 0.296636
v 2.254913 0.903096 0.296636
v 2.344058 0.842436 0.280649
v 2.309616 0.944052 0.296636
v 2.346363 0.881349 0.296636
v 2.334124 0.917458 0.296636
v 2.206614 0.806532 0.280649
v 2.206320 0.906039 0.296636
v 2.250927 0.992232 0.296636
v 2.311428 0.987170 0.296636
v 2.202335 0.995174 0.296636
v 2.230598 1.022967 0.271905
v 2.340345 1.019634 0.271905
v 2.137301 1.022042 0.296636
v 2.203247 0.974763 0.296636
v 2.251840 0.971821 0.296636
v 2.311013 0.977297 0.296636
v 2.167107 0.985361 0.296636
v 2.137073 0.972777 0.296636
v 2.136999 1.092999 0.271905
v 2.348430 1.053822 0.296636
v 2.224866 1.099038 0.271905
v 2.273548 1.105312 0.296636
v 2.158092 0.886876 0.296636
v 2.260411 0.886876 0.296636
v 2.315235 0.927473 0.296636
v 2.336121 0.911567 0.296636
v 2.206368 0.889804 0.296636
v 2.158092 0.886876 0.210488
v 2.186292 0.803677 0.226475
v 2.206614 0.806532 0.226475
v 2.288610 0.803677 0.226475
v 2.260411 0.886876 0.210488
v 2.254913 0.903096 0.210488
v 2.206320 0.906039 0.210488
v 2.152595 0.903096 0.210488
v 2.315235 0.927473 0.210488
v 2.309616 0.944052 0.210488
v 2.344058 0.842436 0.226475
v 2.336121 0.911567 0.210488
v 2.334124 0.917458 0.210488
v 2.346363 0.881349 0.210488
v 2.206368 0.889804 0.210488
v 2.311428 0.987170 0.210488
v 2.250927 0.992232 0.210488
v 2.202335 0.995174 0.210488
v 2.203247 0.974763 0.210488
v 2.251840 0.971821 0.210488
v 2.311013 0.977297 0.210488
v 2.340345 1.019634 0.235219
v 2.230598 1.022967 0.235219
v 2.137301 1.022042 0.210488
v 2.167107 0.985361 0.210488
v 2.137073 0.972777 0.210488
v 2.136999 1.092999 0.235219
v 2.273548 1.105312 0.210488
v 2.224866 1.099038 0.235219
v 2.348430 1.053822 0.210488
v 2.162203 0.880286 0.253562
v 2.366119 0.874301 0.253562
v 2.363622 0.832153 0.253562
v 2.214756 0.793266 0.253562
v 2.192746 0.790174 0.253562
v 2.327831 0.978222 0.253562
v 2.326318 0.942214 0.253562
v 2.303567 0.790174 0.253562
v 2.139357 1.103539 0.253562
v 2.355026 0.907029 0.253562
v 2.234525 1.110080 0.253562
v 2.287252 1.116874 0.253562
v 2.328280 0.988915 0.253562
v 2.368357 1.061106 0.253562
v 2.352863 0.913410 0.253562
v 2.359601 1.024077 0.253562
vn -0.0000 -0.0000 1.0000
vn 0.1081 -0.1502 0.9827
vn -0.3696 -0.2494 0.8951
vn 0.1491 0.5684 0.8092
vn 0.0303 0.6135 0.7891
vn 0.2397 0.3204 0.9164
vn -0.3414 -0.4965 0.7980
vn 0.0157 -0.1860 0.9824
vn -0.0081 -0.1899 0.9818
vn -0.0000 -0.0000 -1.0000
vn 0.1081 -0.1502 -0.9827
vn -0.3696 -0.2494 -0.8951
vn 0.1491 0.5684 -0.8092
vn 0.0303 0.6135 -0.7891
vn 0.2397 0.3204 -0.9164
vn -0.3414 -0.4965 -0.7980
vn 0.0157 -0.1860 -0.9824
vn -0.0081 -0.1899 -0.9818
vn 0.8460 -0.1510 -0.5114
vn 0.1231 -0.8761 -0.4661
vn 0.9311 -0.0391 -0.3627
vn -0.9472 -0.3163 0.0521
vn -0.0314 -0.9013 -0.4320
vn -0.9990 -0.0447 -0.0000
vn 0.0300 -0.9996 -0.0000
vn 0.8848 0.2999 -0.3567
vn -0.0547 0.9985 -0.0000
vn -0.1886 0.9427 -0.2752
vn -0.0597 0.8688 -0.4915
vn 0.5258 0.7647 -0.3726
vn 0.4639 -0.6636 -0.5869
vn 0.8182 -0.3515 -0.4549
vn 0.7123 0.6565 -0.2482
vn 0.7538 -0.5289 -0.3899
vn 0.7538 -0.5289 0.3899
vn 0.7123 0.6565 0.2482
vn 0.8182 -0.3515 0.4549
vn 0.8848 0.2999 0.3567
vn 0.4639 -0.6636 0.5869
vn 0.5258 0.7647 0.3726
vn -0.0597 0.8688 0.4915
vn 0.9311 -0.0391 0.3627
vn -0.1886 0.9427 0.2752
vn -0.0314 -0.9013 0.4320
vn -0.9472 -0.3163 -0.0521
vn 0.1231 -0.8761 0.4661
vn 0.8460 -0.1510 0.5114
vn -1.0000 0.0050 -0.0000
vn -0.9326 -0.3609 -0.0000
vt 0.674166 0.626414
vt 0.742302 0.622722
vt 0.735370 0.643172
vt 0.674106 0.646882
vt 0.777855 0.517828
vt 0.847761 0.566693
vt 0.811423 0.673906
vt 0.755581 0.632045
vt 0.749618 0.700930
vt 0.763592 0.671169
vt 0.765611 0.650586
vt 0.613302 0.622722
vt 0.606371 0.643172
vt 0.670232 0.733527
vt 0.731496 0.729818
vt 0.730345 0.755551
vt 0.669081 0.759261
vt 0.806099 0.736722
vt 0.806622 0.749170
vt 0.704715 0.794301
vt 0.587089 0.793134
vt 0.843080 0.790099
vt 0.804338 0.694808
vt 0.624668 0.746888
vt 0.586801 0.731023
vt 0.586708 0.882596
vt 0.697488 0.890210
vt 0.853273 0.833202
vt 0.758864 0.898118
vt 0.648855 0.517828
vt 0.674476 0.521427
vt 0.757831 0.616506
vt 0.766158 0.645840
vt 0.682464 0.608662
vt 0.682402 0.629769
vt 0.745576 0.625944
vt 0.752723 0.604856
vt 0.823999 0.657635
vt 0.861471 0.547080
vt 0.789385 0.496691
vt 0.851152 0.636956
vt 0.864467 0.597671
vt 0.619702 0.604856
vt 0.612555 0.625944
vt 0.678407 0.719116
vt 0.677220 0.745651
vt 0.740394 0.741826
vt 0.741581 0.715291
vt 0.819049 0.735246
vt 0.818510 0.722410
vt 0.592672 0.780581
vt 0.713964 0.781784
vt 0.856643 0.777451
vt 0.816694 0.679189
vt 0.592375 0.716533
vt 0.631422 0.732893
vt 0.592279 0.872831
vt 0.706513 0.880682
vt 0.769802 0.888838
vt 0.867154 0.821897
vt 0.656364 0.496691
vt 0.682783 0.500403
vt 0.848556 0.644615
vt 0.774724 0.724203
vt 0.808814 0.727457
vt 0.831806 0.693003
vt 0.789791 0.690565
vt 0.664754 0.479136
vt 0.693369 0.483156
vt 0.803831 0.623010
vt 0.849938 0.624978
vt 0.852914 0.593677
vt 0.807205 0.585805
vt 0.773854 0.661014
vt 0.838518 0.685460
vt 0.839548 0.544386
vt 0.801757 0.513343
vt 0.808829 0.479136
vt 0.399689 0.782690
vt 0.399689 0.643025
vt 0.288160 0.643025
vt 0.288160 0.782690
vt 0.468085 1.000000
vt 0.838693 0.663365
vt 0.798120 0.664156
vt 0.363595 0.636567
vt 0.295033 0.636567
vt 0.295033 0.679389
vt 0.363595 0.679389
vt 0.787619 0.903870
vt 0.719070 0.895037
vt 0.854251 0.584045
vt 0.808225 0.574787
vt 0.595344 0.886533
vt 0.360060 0.654276
vt 0.296775 0.671037
vt 0.296775 0.794943
vt 0.360060 0.788478
vt 0.886906 0.533712
vt 0.839768 0.657765
vt 0.799062 0.658904
vt 0.403098 0.756220
vt 0.413451 0.692157
vt 0.314266 0.662920
vt 0.314266 0.778486
vt 0.830922 0.543813
vt 0.812590 0.527843
vt 0.761197 0.575396
vt 0.791624 0.540139
vt 0.300398 0.640371
vt 0.378439 0.654620
vt 0.413929 0.773379
vt 0.333164 0.750019
vt 0.796711 0.500803
vt 0.872427 0.553729
vt 0.423345 0.671037
vt 0.423345 0.794943
vt 0.709666 0.904130
vt 0.589680 0.895884
vt 0.760729 0.585128
vt 0.776143 0.912696
vt 0.684742 0.504702
vt 0.704729 0.660180
vt 0.755244 0.528457
vt 0.656992 0.500803
vt 0.725085 0.627446
vt 0.761780 0.732731
vt 0.788996 0.748756
vt 0.816213 0.732731
vt 0.852908 0.627446
vt 0.852908 0.554347
vt 0.725085 0.554347
vt 0.699737 0.686784
vt 0.833459 0.712051
s 0
usemtl gun
f 30/1/1 27/2/1 4/3/1 10/4/1
f 27/2/2 2/5/2 5/6/2 28/7/2
f 28/8/3 5/9/3 7/10/3 29/11/3
f 26/12/1 30/1/1 10/4/1 3/13/1
f 17/14/1 18/15/1 11/16/1 13/17/1
f 18/15/1 19/18/1 12/19/1 11/16/1
f 13/17/4 11/16/4 14/20/4 16/21/4
f 11/16/5 12/19/5 15/22/5 14/20/5
f 4/3/1 6/23/1 19/18/1 18/15/1
f 10/4/1 4/3/1 18/15/1 17/14/1
f 17/14/1 13/17/1 20/24/1 21/25/1
f 20/24/1 13/17/1 16/21/1 21/25/1
f 16/21/6 14/20/6 22/26/6
f 22/26/1 14/20/1 15/22/1 24/27/1
f 24/27/7 15/22/7 23/28/7 25/29/7
f 1/30/8 9/31/8 30/1/8 26/12/8
f 6/32/1 28/8/1 29/11/1 8/33/1
f 4/3/1 27/2/1 28/7/1 6/23/1
f 9/31/9 2/5/9 27/2/9 30/1/9
f 45/34/10 37/35/10 36/36/10 35/37/10
f 35/37/11 39/38/11 41/39/11 34/40/11
f 39/38/12 42/41/12 44/42/12 41/39/12
f 31/43/10 38/44/10 37/35/10 45/34/10
f 49/45/10 48/46/10 47/47/10 50/48/10
f 50/48/10 47/47/10 46/49/10 51/50/10
f 48/46/13 54/51/13 53/52/13 47/47/13
f 47/47/14 53/52/14 52/53/14 46/49/14
f 36/36/10 50/48/10 51/50/10 40/54/10
f 37/35/10 49/45/10 50/48/10 36/36/10
f 49/45/10 56/55/10 55/56/10 48/46/10
f 55/56/10 56/55/10 54/51/10 48/46/10
f 54/51/15 57/57/15 53/52/15
f 57/57/10 59/58/10 52/53/10 53/52/10
f 59/58/16 58/59/16 60/60/16 52/53/16
f 32/61/17 31/43/17 45/34/17 33/62/17
f 40/54/10 43/63/10 42/41/10 39/38/10
f 36/36/10 40/54/10 39/38/10 35/37/10
f 33/62/18 45/34/18 35/37/18 34/40/18
f 63/64/19 41/65/19 44/66/19 62/67/19
f 65/68/20 32/61/20 33/62/20 64/69/20
f 67/70/21 40/71/21 51/72/21 66/73/21
f 61/74/22 31/75/22 32/76/22 65/77/22
f 64/69/23 33/62/23 34/40/23 68/78/23
f 17/79/24 49/80/24 37/81/24 10/82/24
f 21/83/25 56/83/25 49/83/25 17/83/25
f 62/67/26 44/66/26 42/84/26 70/85/26
f 10/86/27 37/87/27 38/88/27 3/89/27
f 72/90/28 58/59/28 59/58/28 71/91/28
f 66/73/21 51/72/21 46/92/21 73/93/21
f 71/91/29 59/58/29 57/57/29 69/94/29
f 74/95/30 60/96/30 58/97/30 72/98/30
f 68/78/31 34/40/31 41/39/31 63/99/31
f 70/85/26 42/84/26 43/100/26 75/101/26
f 76/102/32 52/103/32 60/104/32 74/105/32
f 75/101/33 43/100/33 40/71/33 67/70/33
f 73/93/34 46/92/34 52/106/34 76/107/34
f 12/108/35 73/93/35 76/107/35 15/109/35
f 8/33/36 75/101/36 67/70/36 6/32/36
f 15/110/37 76/111/37 74/112/37 23/113/37
f 29/11/38 70/85/38 75/101/38 8/33/38
f 2/5/39 68/114/39 63/115/39 5/6/39
f 23/116/40 74/95/40 72/98/40 25/117/40
f 24/27/41 71/118/41 69/119/41 22/26/41
f 19/120/42 66/73/42 73/93/42 12/108/42
f 25/29/43 72/121/43 71/118/43 24/27/43
f 7/10/38 62/67/38 70/85/38 29/11/38
f 9/31/44 64/122/44 68/114/44 2/5/44
f 26/123/45 61/74/45 65/77/45 1/124/45
f 6/32/42 67/70/42 66/73/42 19/120/42
f 1/30/46 65/125/46 64/122/46 9/31/46
f 5/9/47 63/64/47 62/67/47 7/10/47
f 16/126/48 22/127/48 69/128/48 57/129/48 54/130/48 56/131/48 21/132/48
f 3/133/49 38/134/49 31/75/49 61/74/49 26/123/49
