# Blender 4.0.1
# www.blender.org
mtllib part2.mtl
o gun_part_2
v 2.048593 0.898054 0.278753
v 2.033299 1.016999 0.278753
v 2.033071 0.967734 0.278753
v 1.926711 1.015187 0.262375
v 1.926483 0.965922 0.278753
v 1.926483 0.891643 0.278753
v 1.886250 1.087655 0.262375
v 2.032997 1.087957 0.254022
v 1.926483 0.907190 0.278753
v 2.054090 0.881833 0.278753
v 2.007720 0.967303 0.278753
v 2.007948 1.016568 0.262375
v 1.998094 1.087885 0.262375
v 2.021295 0.946296 0.278753
v 1.995944 0.945865 0.278753
v 2.000158 0.927575 0.278753
v 1.974807 0.927144 0.278753
v 2.054090 0.881833 0.192605
v 2.048593 0.898054 0.192605
v 2.033299 1.016999 0.192605
v 2.033071 0.967734 0.192605
v 1.926711 1.015187 0.208984
v 1.926483 0.965922 0.192605
v 2.007720 0.967303 0.192605
v 2.007948 1.016568 0.208984
v 1.926483 0.891643 0.192605
v 1.926483 0.907190 0.192605
v 1.886250 1.087655 0.208984
v 2.032997 1.087957 0.217337
v 1.998094 1.087885 0.208984
v 1.995944 0.945865 0.192605
v 2.021295 0.946296 0.192605
v 1.974807 0.927144 0.192605
v 2.000158 0.927575 0.192605
v 2.058201 0.875244 0.235679
v 1.919989 0.885869 0.235679
v 1.876413 1.098169 0.235679
v 1.997552 1.098419 0.235679
v 2.035355 1.098496 0.235679
vn -0.0054 0.3155 0.9489
vn -0.0000 -0.0000 1.0000
vn -0.1316 0.1606 0.9782
vn -0.3060 0.1575 0.9389
vn -0.0054 0.3155 -0.9489
vn -0.0000 -0.0000 -1.0000
vn -0.1316 0.1606 -0.9782
vn -0.3060 0.1575 -0.9389
vn -0.0759 -0.9867 -0.1437
vn 0.0746 0.9972 -0.0000
vn 0.0170 -0.9999 -0.0000
vn 1.0000 -0.0000 -0.0000
vn -0.0019 0.9302 -0.3671
vn 0.0470 0.9040 -0.4249
vn 0.8765 -0.4814 -0.0000
vn -0.8765 0.4815 -0.0000
vn 0.6630 -0.7486 -0.0000
vn -0.6630 0.7486 -0.0000
vn 0.0470 0.9040 0.4249
vn -0.0019 0.9302 0.3671
vn -0.0759 -0.9867 0.1437
vn 0.9326 0.3609 -0.0000
vn 1.0000 -0.0050 -0.0000
vn -1.0000 0.0046 -0.0000
vn -0.8636 -0.5042 -0.0000
vn -0.9848 0.1735 -0.0000
vt 0.554839 0.730480
vt 0.555127 0.792591
vt 0.452706 0.790850
vt 0.452419 0.728739
vt 0.542704 0.882505
vt 0.401695 0.882215
vt 0.452419 0.635090
vt 0.613302 0.622722
vt 0.606371 0.643172
vt 0.452419 0.654691
vt 0.586708 0.882596
vt 0.587089 0.793134
vt 0.586801 0.731023
vt 0.536910 0.793722
vt 0.566410 0.791415
vt 0.557313 0.773669
vt 0.547675 0.779328
vt 0.554802 0.768723
vt 0.552846 0.770713
vt 0.559417 0.715973
vt 0.453803 0.714177
vt 0.454100 0.778226
vt 0.559713 0.780021
vt 0.546903 0.872738
vt 0.401498 0.872439
vt 0.453803 0.617609
vt 0.453803 0.637821
vt 0.612555 0.625944
vt 0.619702 0.604856
vt 0.592279 0.872831
vt 0.592672 0.780581
vt 0.592375 0.716533
vt 0.530272 0.737807
vt 0.546196 0.755251
vt 0.556652 0.760074
vt 0.566410 0.738285
vt 0.551989 0.763575
vt 0.553849 0.765338
vt 0.445361 0.610102
vt 0.625046 0.596289
vt 0.363595 0.679389
vt 0.295033 0.679389
vt 0.295033 0.776845
vt 0.363595 0.776845
vt 0.468085 1.000000
vt 0.707767 0.833673
vt 0.839696 0.834290
vt 0.840116 0.744345
vt 0.708187 0.743729
vt 0.546198 0.886432
vt 0.388709 0.886108
vt 0.595344 0.886533
vt 0.542020 0.895786
vt 0.389292 0.895471
vt 0.444232 0.627810
vt 0.618485 0.614414
vt 0.815386 0.668782
vt 0.733622 0.668400
vt 0.734215 0.541295
vt 0.775201 0.519435
vt 0.815980 0.541677
vt 0.707124 0.857474
vt 0.840116 0.858095
vt 0.773572 0.868114
s 0
usemtl gun.001
f 11/1/1 12/2/1 4/3/1 5/4/1
f 13/5/2 7/6/2 4/3/2 12/2/2
f 6/7/2 10/8/2 1/9/2 9/10/2
f 8/11/3 13/5/3 12/2/3 2/12/3
f 3/13/4 2/12/4 12/2/4 11/1/4
f 3/14/2 11/15/2 15/16/2 14/17/2
f 14/17/2 15/16/2 17/18/2 16/19/2
f 24/20/5 23/21/5 22/22/5 25/23/5
f 30/24/6 25/23/6 22/22/6 28/25/6
f 26/26/6 27/27/6 19/28/6 18/29/6
f 29/30/7 20/31/7 25/23/7 30/24/7
f 21/32/8 24/20/8 25/23/8 20/31/8
f 21/33/6 32/34/6 31/35/6 24/36/6
f 32/34/6 34/37/6 33/38/6 31/35/6
f 36/39/9 26/26/9 18/29/9 35/40/9
f 1/41/10 19/42/10 27/43/10 9/44/10
f 5/45/11 23/45/11 24/45/11 11/45/11
f 9/46/12 27/47/12 23/48/12 5/49/12
f 38/50/13 30/24/13 28/25/13 37/51/13
f 39/52/14 29/30/14 30/24/14 38/50/14
f 14/17/15 32/34/15 21/33/15 3/14/15
f 11/15/16 24/36/16 31/35/16 15/16/16
f 17/18/11 33/38/11 34/37/11 16/19/11
f 16/19/17 34/37/17 32/34/17 14/17/17
f 15/16/18 31/35/18 33/38/18 17/18/18
f 8/30/19 39/52/19 38/50/19 13/24/19
f 13/5/20 38/53/20 37/54/20 7/6/20
f 6/7/21 36/55/21 35/56/21 10/8/21
f 1/41/22 10/8/22 35/40/22 18/29/22 19/42/22
f 2/12/23 3/14/23 21/32/23 20/31/23 29/30/23 39/52/23 8/11/23
f 22/57/24 23/48/24 5/49/24 4/58/24
f 7/59/25 37/60/25 28/61/25 22/57/25 4/58/25
f 6/62/26 9/46/26 27/47/26 26/63/26 36/64/26
