# Blender 4.0.1
# www.blender.org
mtllib var2.mtl
o box_var_2
v 6.863664 -0.046253 3.107307
v 6.863664 0.847452 3.107307
v 6.031776 -0.046253 3.433913
v 6.031776 0.847452 3.433913
v 6.537058 -0.046253 2.275420
v 6.537058 0.847452 2.275420
v 5.705171 -0.046253 2.602025
v 5.705171 0.847452 2.602025
vn 0.3655 -0.0000 0.9308
vn -0.9308 -0.0000 0.3655
vn -0.3655 -0.0000 -0.9308
vn 0.9308 -0.0000 -0.3655
vn -0.0000 -1.0000 -0.0000
vn -0.0000 1.0000 -0.0000
vt 0.486545 0.481519
vt 0.923882 0.481519
vt 0.923882 0.918856
vt 0.486545 0.918856
vt 0.491245 0.027736
vt 0.928483 0.027736
vt 0.928483 0.464974
vt 0.491245 0.464974
vt 0.008066 0.020842
vt 0.450541 0.020842
vt 0.450541 0.463317
vt 0.008066 0.463317
vt 0.451963 0.468139
vt 0.016025 0.468139
vt 0.016025 0.032202
vt 0.451963 0.032202
vt 0.017970 0.483779
vt 0.449187 0.483779
vt 0.449187 0.914996
vt 0.017970 0.914996
vt 0.488446 0.021837
vt 0.932032 0.021837
vt 0.932032 0.465423
vt 0.488446 0.465423
s 0
g box_var_2_Material.002
usemtl Material.002
f 1/1/1 2/2/1 4/3/1 3/4/1
f 3/5/2 4/6/2 8/7/2 7/8/2
f 7/9/3 8/10/3 6/11/3 5/12/3
f 5/13/4 6/14/4 2/15/4 1/16/4
f 3/17/5 7/18/5 5/19/5 1/20/5
f 8/21/6 4/22/6 2/23/6 6/24/6
