# Blender 4.0.1
# www.blender.org
mtllib var4.mtl
o box_var_4
v 7.259039 0.903895 2.719223
v 7.259039 1.797600 2.719223
v 6.777222 0.903895 3.471926
v 6.777222 1.797600 3.471926
v 6.506337 0.903895 2.237407
v 6.506337 1.797600 2.237407
v 6.024520 0.903895 2.990109
v 6.024520 1.797600 2.990109
vn 0.8422 -0.0000 0.5391
vn -0.5391 -0.0000 0.8422
vn -0.8422 -0.0000 -0.5391
vn 0.5391 -0.0000 -0.8422
vn -0.0000 -1.0000 -0.0000
vn -0.0000 1.0000 -0.0000
vt 0.012185 0.484620
vt 0.449522 0.484620
vt 0.449522 0.921956
vt 0.012185 0.921956
vt 0.489944 0.031981
vt 0.927182 0.031981
vt 0.927182 0.469219
vt 0.489944 0.469219
vt 0.008066 0.020842
vt 0.450541 0.020842
vt 0.450541 0.463317
vt 0.008066 0.463317
vt 0.014475 0.480208
vt 0.450412 0.480208
vt 0.450412 0.916146
vt 0.014475 0.916146
vt 0.017970 0.483779
vt 0.449187 0.483779
vt 0.449187 0.914996
vt 0.017970 0.914996
vt 0.485346 0.472944
vt 0.928932 0.472944
vt 0.928932 0.916530
vt 0.485346 0.916530
s 0
g box_var_4_Material.005
usemtl Material.005
f 1/1/1 2/2/1 4/3/1 3/4/1
f 3/5/2 4/6/2 8/7/2 7/8/2
f 7/9/3 8/10/3 6/11/3 5/12/3
f 5/13/4 6/14/4 2/15/4 1/16/4
f 3/17/5 7/18/5 5/19/5 1/20/5
f 8/21/6 4/22/6 2/23/6 6/24/6
