# Blender 4.0.1
# www.blender.org
mtllib pc.mtl
o pc
v 8.049293 0.971128 4.797160
v 8.094214 1.041234 4.778438
v 8.254080 0.971128 4.299690
v 8.272801 1.041234 4.344612
v 8.546762 0.971128 5.001947
v 8.528040 1.041234 4.957025
v 8.751550 0.971128 4.504477
v 8.706628 1.041234 4.523199
v 8.049293 1.041234 4.797160
v 8.254080 1.041234 4.299690
v 8.751550 1.041234 4.504477
v 8.546762 1.041234 5.001947
v 8.073970 1.074790 4.779824
v 8.272449 1.074790 4.297677
v 8.754597 1.074790 4.496156
v 8.556118 1.074790 4.978303
v 8.104840 1.212235 4.758654
v 8.270432 1.163064 4.318287
v 8.802660 1.163064 4.537383
v 8.546131 1.212235 4.940314
v 8.104840 1.646430 4.758654
v 8.270432 1.695601 4.318287
v 8.802660 1.695601 4.537383
v 8.546131 1.646430 4.940314
v 8.591600 1.163064 4.959031
v 8.059372 1.163064 4.739936
v 8.591600 1.695601 4.959031
v 8.059372 1.695601 4.739936
v 8.569257 1.212235 4.884138
v 8.127966 1.212235 4.702478
v 8.569257 1.646430 4.884138
v 8.127966 1.646430 4.702478
v 8.549884 0.959841 5.563612
v 8.549884 1.793198 5.563612
v 8.812583 0.959841 4.910254
v 8.812583 1.793198 4.910254
v 8.874225 0.959841 5.694022
v 8.874225 1.793198 5.694022
v 9.136925 0.959841 5.040664
v 9.136925 1.793198 5.040664
v 7.939905 1.062354 5.043924
v 7.828557 1.062354 5.320856
v 8.530506 1.062354 5.281391
v 8.419159 1.062354 5.558323
v 7.939905 0.996109 5.043924
v 7.828557 0.996109 5.320856
v 8.530506 0.996109 5.281391
v 8.419159 0.996109 5.558323
vn -0.9247 -0.0000 -0.3807
vn 0.3807 -0.0000 -0.9247
vn 0.9247 -0.0000 0.3807
vn -0.3807 -0.0000 0.9247
vn -0.0000 -1.0000 -0.0000
vn -0.3677 -0.2587 0.8932
vn -0.0000 1.0000 -0.0000
vn 0.8204 -0.4345 0.3717
vn 0.2333 -0.7902 -0.5667
vn 0.6490 -0.7124 0.2671
vn -0.8129 -0.4766 -0.3346
vn -0.9032 -0.1297 -0.4092
vn -0.3587 0.3345 0.8715
vn 0.3714 0.2191 -0.9022
vn 0.8942 -0.0000 0.4476
vn -0.8942 -0.0000 -0.4476
vn -0.9278 -0.0000 -0.3731
vn 0.3731 -0.0000 -0.9278
vn 0.9278 -0.0000 0.3731
vn -0.3731 -0.0000 0.9278
vn 0.9278 -0.0000 0.3730
vn 0.3730 -0.0000 -0.9278
vt 0.636569 0.365503
vt 0.638118 0.287033
vt 0.716588 0.288582
vt 0.715039 0.367052
vt 0.795057 0.290131
vt 0.793508 0.368601
vt 0.873527 0.291680
vt 0.871978 0.370150
vt 0.951997 0.293229
vt 0.950448 0.371699
vt 0.791959 0.447071
vt 0.870429 0.448620
vt 0.938643 0.393661
vt 0.672685 0.394526
vt 0.672623 0.375503
vt 0.938581 0.374638
vt 0.874150 0.444462
vt 0.874150 0.258663
vt 0.887779 0.245034
vt 0.887779 0.458091
vt 0.688350 0.258663
vt 0.674721 0.245034
vt 0.688350 0.444462
vt 0.674721 0.458091
vt 0.961776 0.399957
vt 0.859845 0.311570
vt 0.866787 0.270442
vt 0.961859 0.366447
vt 0.857571 0.324494
vt 0.738311 0.325630
vt 0.736085 0.314411
vt 0.957696 0.410790
vt 0.654380 0.407736
vt 0.650953 0.399813
vt 0.840383 0.734008
vt 0.840383 0.734008
vt 0.645980 0.363488
vt 0.727285 0.279819
vt 0.661921 0.317427
vt 0.988205 0.316366
vt 0.656494 0.250908
vt 0.874510 0.250908
vt 0.874510 0.468925
vt 0.656494 0.468924
vt 0.851086 0.239365
vt 0.851086 0.469199
vt 0.638432 0.469199
vt 0.638432 0.239365
vt 0.668851 0.253066
vt 0.864560 0.253066
vt 0.864560 0.474100
vt 0.668851 0.474100
vt 0.636035 0.243314
vt 0.837539 0.243314
vt 0.837539 0.470891
vt 0.636035 0.470891
vt 0.327494 0.680411
vt 0.044585 0.680411
vt 0.015435 0.651821
vt 0.356644 0.651821
vt 0.044585 0.932870
vt 0.327494 0.932870
vt 0.356644 0.961460
vt 0.015435 0.961460
vt 0.355576 0.931893
vt 0.355576 0.679435
vt 0.373454 0.650845
vt 0.373454 0.960483
vt 0.044830 0.680411
vt 0.327740 0.680411
vt 0.327740 0.932870
vt 0.044830 0.932870
vt 0.082469 0.671508
vt 0.263234 0.671508
vt 0.559270 0.733031
vt 0.239797 0.664672
vt 0.059031 0.664672
vt 0.411641 0.036641
vt 0.588359 0.036641
vt 0.588359 0.213359
vt 0.411641 0.213359
vt 0.691299 0.238174
vt 0.914170 0.238174
vt 0.914170 0.461045
vt 0.691299 0.461045
vt 0.401026 0.500000
vt 0.598974 0.500000
vt 0.598974 0.750000
vt 0.401026 0.750000
vt 0.601502 0.510127
vt 0.601502 0.962529
vt 0.411728 0.962529
vt 0.411728 0.510127
vt 0.679246 0.247605
vt 0.871535 0.247605
vt 0.871535 0.439895
vt 0.679246 0.439895
vt 0.743301 0.259202
vt 0.823105 0.259202
vt 0.823105 0.459548
vt 0.743301 0.459548
vt 0.023844 0.464065
vt 0.023844 0.242967
vt 0.597250 0.242967
vt 0.597250 0.464065
vt 0.679630 0.244084
vt 0.898495 0.244084
vt 0.898495 0.462948
vt 0.679630 0.462948
vt 0.670996 0.243261
vt 0.887598 0.243261
vt 0.887598 0.459864
vt 0.670996 0.459864
vt 0.681555 0.236243
vt 0.912195 0.236243
vt 0.912195 0.466882
vt 0.681555 0.466882
vt 0.686904 0.247451
vt 0.899033 0.247451
vt 0.899033 0.459580
vt 0.686904 0.459580
vt 0.619753 0.239756
vt 0.931028 0.239756
vt 0.931028 0.459463
vt 0.619753 0.459463
s 0
g pc_Material.004
usemtl Material.004
f 1/1/1 9/2/1 10/3/1 3/4/1
f 3/4/2 10/3/2 11/5/2 7/6/2
f 7/6/3 11/5/3 12/7/3 5/8/3
f 5/8/4 12/7/4 9/9/4 1/10/4
f 3/11/5 7/6/5 5/8/5 1/12/5
f 2/13/6 6/14/6 16/15/6 13/16/6
f 2/17/7 4/18/7 10/19/7 9/20/7
f 4/18/7 8/21/7 11/22/7 10/19/7
f 8/21/7 6/23/7 12/24/7 11/22/7
f 6/23/7 2/17/7 9/20/7 12/24/7
f 16/25/8 15/26/8 19/27/8 25/28/8
f 8/29/9 4/30/9 14/31/9 15/26/9
f 6/32/10 8/29/10 15/26/10 16/25/10
f 4/30/11 2/33/11 13/34/11 14/31/11
f 21/35/3 17/36/3 30/36/3 32/35/3
f 14/31/12 13/34/12 26/37/12 18/38/12
f 13/16/13 16/15/13 25/39/13 26/40/13
f 15/26/14 14/31/14 18/38/14 19/27/14
f 23/41/7 22/42/7 28/43/7 27/44/7
f 19/45/2 18/46/2 22/47/2 23/48/2
f 25/49/15 19/50/15 23/51/15 27/52/15
f 18/53/16 26/54/16 28/55/16 22/56/16
f 20/57/4 17/58/4 26/59/4 25/60/4
f 21/61/4 24/62/4 27/63/4 28/64/4
f 24/65/4 20/66/4 25/67/4 27/68/4
f 17/58/4 21/61/4 28/64/4 26/59/4
f 30/69/4 29/70/4 31/71/4 32/72/4
f 24/73/5 21/74/5 32/74/5 31/73/5
f 20/75/1 24/75/1 31/75/1 29/75/1
f 17/76/7 20/77/7 29/77/7 30/76/7
f 33/78/17 34/79/17 36/80/17 35/81/17
f 35/82/18 36/83/18 40/84/18 39/85/18
f 39/86/19 40/87/19 38/88/19 37/89/19
f 37/90/20 38/91/20 34/92/20 33/93/20
f 35/94/5 39/95/5 37/96/5 33/97/5
f 40/98/7 36/99/7 34/100/7 38/101/7
f 41/102/7 42/103/7 44/104/7 43/105/7
f 43/106/21 44/107/21 48/108/21 47/109/21
f 47/110/5 48/111/5 46/112/5 45/113/5
f 45/114/17 46/115/17 42/116/17 41/117/17
f 43/118/22 47/119/22 45/120/22 41/121/22
f 48/122/20 44/123/20 42/124/20 46/125/20
