# Blender 4.0.1
# www.blender.org
mtllib table.mtl
o table
v 7.044326 0.871719 5.305750
v 7.044326 0.937196 5.305750
v 7.497569 0.871719 3.857193
v 7.497569 0.937196 3.857193
v 9.372587 0.871719 6.034245
v 9.372587 0.937196 6.034245
v 9.825830 0.871719 4.585689
v 9.825830 0.937196 4.585689
v 9.717294 0.871719 4.551728
v 7.606107 0.871719 3.891154
v 7.606107 0.937196 3.891154
v 9.717294 0.937196 4.551728
v 7.152864 0.871719 5.339710
v 9.264051 0.871719 6.000285
v 9.264051 0.937196 6.000285
v 7.152864 0.937196 5.339710
v 7.370079 0.871719 4.264648
v 7.171816 0.871719 4.898294
v 7.171816 0.937196 4.898294
v 7.370079 0.937196 4.264648
v 9.500077 0.871719 5.626790
v 9.698340 0.871719 4.993144
v 9.698340 0.937196 4.993144
v 9.500077 0.937196 5.626790
v 9.589804 0.937196 4.959184
v 9.391541 0.937196 5.592830
v 7.478618 0.937196 4.298609
v 7.280354 0.937196 4.932255
v 7.478618 0.871719 4.298609
v 7.280354 0.871719 4.932255
v 9.589804 0.871719 4.959184
v 9.391541 0.871719 5.592830
v 7.171816 0.002391 4.898294
v 7.044326 0.002391 5.305750
v 7.606107 0.002391 3.891154
v 7.497569 0.002391 3.857193
v 9.698340 0.002391 4.993144
v 9.825830 0.002391 4.585689
v 9.264051 0.002391 6.000285
v 9.372587 0.002391 6.034245
v 9.717294 0.002391 4.551728
v 7.152864 0.002391 5.339710
v 7.280354 0.002391 4.932255
v 9.391541 0.002391 5.592830
v 7.370079 0.002391 4.264648
v 9.500077 0.002391 5.626790
v 7.478618 0.002391 4.298609
v 9.589804 0.002391 4.959184
vn -0.9544 -0.0000 -0.2986
vn 0.2986 -0.0000 -0.9544
vn 0.9544 -0.0000 0.2986
vn -0.2986 -0.0000 0.9544
vn -0.0000 1.0000 -0.0000
vn -0.0000 -1.0000 -0.0000
vt 0.571773 0.706663
vt 0.573846 0.651014
vt 0.831079 0.651850
vt 0.829005 0.707500
vt 0.338308 0.668485
vt 0.338308 0.636486
vt 0.042829 0.636486
vt 0.042829 0.668485
vt 0.593553 0.847135
vt 0.564429 0.656660
vt 0.787520 0.659324
vt 0.816643 0.849798
vt 0.626715 0.620482
vt 0.631677 0.586852
vt 0.922624 0.586756
vt 0.917662 0.620386
vt 0.099842 0.582424
vt 0.157504 0.582424
vt 0.157504 0.757333
vt 0.099842 0.757333
vt 0.102040 0.688806
vt 0.062293 0.688806
vt 0.062293 0.582833
vt 0.102040 0.582833
vt 0.914917 0.688806
vt 0.875171 0.688806
vt 0.875171 0.582833
vt 0.914917 0.582833
vt 0.301676 0.757333
vt 0.323304 0.757333
vt 0.323304 0.932241
vt 0.301676 0.932241
vt 0.208333 0.666667
vt 0.291667 0.666667
vt 0.291667 0.750000
vt 0.208333 0.750000
vt 0.044822 0.620676
vt 0.049784 0.587046
vt 0.340731 0.586949
vt 0.335769 0.620579
vt 0.929268 0.668485
vt 0.929268 0.636486
vt 0.633788 0.636486
vt 0.633788 0.668485
vt 0.208333 0.500000
vt 0.291667 0.500000
vt 0.291667 0.583333
vt 0.208333 0.583333
vt 0.215166 0.757333
vt 0.236794 0.757333
vt 0.236794 0.932241
vt 0.215166 0.932241
vt 0.125000 0.583333
vt 0.125000 0.666667
vt 0.875171 0.959580
vt 0.102040 0.959580
vt 0.102040 0.853607
vt 0.875171 0.853607
vt 0.914917 0.959580
vt 0.914917 0.853607
vt 0.062293 0.959580
vt 0.062293 0.853607
vt 0.236794 0.757333
vt 0.258421 0.757333
vt 0.258421 0.932241
vt 0.236794 0.932241
vt 0.375000 0.583333
vt 0.375000 0.666667
vt 0.147372 0.841808
vt 0.118248 0.651334
vt 0.341339 0.653997
vt 0.370462 0.844471
vt 0.057307 0.704990
vt 0.059380 0.649340
vt 0.316613 0.650177
vt 0.314540 0.705827
vt 0.409813 0.872657
vt 0.388185 0.872657
vt 0.388185 0.814995
vt 0.409813 0.814995
vt 0.125000 0.750000
vt 0.409813 0.814995
vt 0.388185 0.757333
vt 0.409813 0.757333
vt 0.431440 0.814995
vt 0.431440 0.757333
vt 0.258421 0.757333
vt 0.280049 0.757333
vt 0.280049 0.932241
vt 0.258421 0.932241
vt 0.344931 0.757333
vt 0.344931 0.932241
vt 0.215166 0.582424
vt 0.215166 0.757333
vt 0.366558 0.757333
vt 0.366558 0.932241
vt 0.301676 0.757333
vt 0.301676 0.932241
vt 0.388185 0.757333
vt 0.388185 0.932241
vt 0.272829 0.582424
vt 0.272829 0.757333
vt 0.330491 0.582424
vt 0.330491 0.757333
vt 0.388153 0.582424
vt 0.388153 0.757333
vt 0.445816 0.582424
vt 0.445816 0.757333
vt 0.099842 0.757333
vt 0.157504 0.757333
vt 0.157504 0.932241
vt 0.099842 0.932241
s 0
g table_table
usemtl table
f 17/1/1 20/2/1 4/3/1 3/4/1
f 9/5/2 12/6/2 8/7/2 7/8/2
f 21/9/3 24/10/3 6/11/3 5/12/3
f 13/13/4 16/14/4 2/15/4 1/16/4
f 21/17/3 5/18/3 40/19/3 46/20/3
f 28/21/5 19/22/5 2/23/5 16/24/5
f 24/25/5 26/26/5 15/27/5 6/28/5
f 26/26/5 28/21/5 16/24/5 15/27/5
f 22/29/4 31/30/4 48/31/4 37/32/4
f 30/33/6 32/34/6 14/35/6 13/36/6
f 5/37/4 6/38/4 15/39/4 14/40/4
f 14/40/4 15/39/4 16/14/4 13/13/4
f 3/41/2 4/42/2 11/43/2 10/44/2
f 10/44/2 11/43/2 12/6/2 9/5/2
f 10/45/6 9/46/6 31/47/6 29/48/6
f 29/48/6 31/47/6 32/34/6 30/33/6
f 29/49/4 17/50/4 45/51/4 47/52/4
f 17/53/6 29/48/6 30/33/6 18/54/6
f 12/55/5 11/56/5 27/57/5 25/58/5
f 25/58/5 27/57/5 28/21/5 26/26/5
f 8/59/5 12/55/5 25/58/5 23/60/5
f 23/60/5 25/58/5 26/26/5 24/25/5
f 11/56/5 4/61/5 20/62/5 27/57/5
f 27/57/5 20/62/5 19/22/5 28/21/5
f 13/63/4 1/64/4 34/65/4 42/66/4
f 31/47/6 22/67/6 21/68/6 32/34/6
f 7/69/3 8/70/3 23/71/3 22/72/3
f 22/72/3 23/71/3 24/10/3 21/9/3
f 1/73/1 2/74/1 19/75/1 18/76/1
f 18/76/1 19/75/1 20/2/1 17/1/1
f 44/77/6 46/78/6 40/79/6 39/80/6
f 33/54/6 43/33/6 42/36/6 34/81/6
f 36/82/6 35/79/6 47/83/6 45/84/6
f 41/85/6 38/82/6 37/84/6 48/86/6
f 18/87/2 30/88/2 43/89/2 33/90/2
f 5/30/4 14/91/4 39/92/4 40/31/4
f 10/18/3 29/93/3 47/94/3 35/19/3
f 32/91/2 21/95/2 46/96/2 44/92/2
f 3/88/2 10/97/2 35/98/2 36/89/2
f 9/95/2 7/99/2 38/100/2 41/96/2
f 31/93/1 9/101/1 41/102/1 48/94/1
f 17/101/1 3/103/1 36/104/1 45/102/1
f 7/103/3 22/105/3 37/106/3 38/104/3
f 30/105/3 13/107/3 42/108/3 43/106/3
f 1/109/1 18/110/1 33/111/1 34/112/1
f 14/110/1 32/49/1 44/52/1 39/111/1
