# Blender 4.0.1
# www.blender.org
mtllib bomba.mtl
o bomba
v -0.525479 0.054452 0.252813
v -0.525479 0.196260 0.252813
v -0.525479 0.054452 -0.252813
v -0.525479 0.196260 -0.252813
v 0.525479 0.054452 0.252813
v 0.525479 0.054452 -0.252813
v 0.525479 0.196260 -0.252813
v 0.315288 0.054452 -0.252813
v 0.105096 0.054452 -0.252813
v -0.105096 0.054452 -0.252813
v -0.315288 0.054452 -0.252813
v -0.315288 0.196260 -0.252813
v -0.105096 0.196260 -0.252813
v 0.105096 0.196260 -0.252813
v 0.315288 0.196260 -0.252813
v -0.315288 0.054452 0.252813
v -0.105096 0.054452 0.252813
v 0.105096 0.054452 0.252813
v 0.315288 0.054452 0.252813
v 0.315288 0.196260 0.252813
v 0.105096 0.196260 0.252813
v -0.105096 0.196260 0.252813
v -0.315288 0.196260 0.252813
v -0.525479 0.054452 -0.126406
v -0.525479 0.054452 0.000000
v -0.525479 0.054452 0.126406
v -0.525479 0.280552 0.126406
v -0.525479 0.280552 0.000000
v -0.525479 0.196260 -0.126406
v 0.525479 0.054452 0.126406
v 0.525479 0.054452 0.000000
v 0.525479 0.054452 -0.126406
v 0.525479 0.196260 -0.126406
v 0.525479 0.196260 0.000000
v 0.525479 0.196260 0.126406
v 0.315288 0.220912 -0.126406
v 0.315288 0.220912 0.000000
v 0.315288 0.196260 0.126406
v 0.105096 0.220912 -0.126406
v 0.105096 0.220912 0.000000
v 0.105096 0.196260 0.126406
v -0.105096 0.196260 -0.126406
v -0.105096 0.196260 0.000000
v -0.105096 0.196260 0.126406
v -0.315288 0.196260 -0.126406
v -0.315288 0.280552 0.000000
v -0.315288 0.280552 0.126406
v -0.315288 0.054452 -0.126406
v -0.315288 0.054452 0.000000
v -0.315288 0.054452 0.126406
v -0.105096 0.054452 -0.126406
v -0.105096 0.054452 0.000000
v -0.105096 0.054452 0.126406
v 0.105096 0.054452 -0.126406
v 0.105096 0.054452 0.000000
v 0.105096 0.054452 0.126406
v 0.315288 0.054452 -0.126406
v 0.315288 0.054452 0.000000
v 0.315288 0.054452 0.126406
v -0.105096 0.254506 -0.126406
v -0.105096 0.254506 0.000000
v -0.315288 0.254506 -0.126406
v -0.315288 0.254506 0.000000
v 0.315288 0.246264 0.000000
v 0.315288 0.246264 0.126406
v 0.105096 0.246264 0.000000
v 0.105096 0.246264 0.126406
v 0.525479 0.140132 0.126406
v 0.525479 0.140132 0.252813
v 0.315288 0.140132 0.252813
v 0.315288 0.140132 0.126406
v -0.105096 0.054452 0.341304
v 0.105096 0.054452 0.341304
v 0.105096 0.196260 0.341304
v -0.105096 0.196260 0.341304
v 0.315288 0.054452 -0.345170
v 0.105096 0.054452 -0.345170
v 0.105096 0.196260 -0.345170
v 0.315288 0.196260 -0.345170
v -0.525479 0.196260 -0.342312
v -0.525479 0.054452 -0.342312
v -0.315288 0.054452 -0.342312
v -0.315288 0.196260 -0.342312
v -0.657967 0.054452 0.000000
v -0.657967 0.054452 0.126406
v -0.657967 0.196260 0.126406
v -0.657967 0.196260 0.000000
vn -1.0000 -0.0000 -0.0000
vn -0.0000 -0.0000 -1.0000
vn -0.0000 -0.0000 1.0000
vn -0.0000 -1.0000 -0.0000
vn -0.0000 0.8320 0.5548
vn -0.0000 1.0000 -0.0000
vn 0.1869 0.9319 0.3107
vn 1.0000 -0.0000 -0.0000
vn 0.3722 0.9281 -0.0000
vn -0.0583 0.9936 -0.0969
vn -0.1165 0.9932 -0.0000
vn -0.0583 0.9936 0.0969
vn -0.0000 0.9815 -0.1914
vn 0.0583 0.9936 -0.0969
vn 0.1165 0.9932 -0.0000
vn 0.0583 0.9936 0.0969
vn -0.0000 0.8320 -0.5548
vn -0.5368 0.8437 -0.0000
vt 0.406236 0.736896
vt 0.404805 0.823785
vt 0.327354 0.822509
vt 0.328785 0.735621
vt 0.545164 0.876254
vt 0.476461 0.876254
vt 0.476461 0.774421
vt 0.545164 0.774421
vt 0.242563 0.791437
vt 0.167897 0.791437
vt 0.167897 0.680765
vt 0.242563 0.680765
vt 0.220820 0.738574
vt 0.155811 0.740171
vt 0.154850 0.701076
vt 0.219859 0.699479
vt 0.382275 0.739653
vt 0.302542 0.739653
vt 0.302542 0.691702
vt 0.382275 0.691702
vt 0.502797 0.697424
vt 0.548620 0.697424
vt 0.548620 0.809836
vt 0.502797 0.809836
vt 0.621476 0.739653
vt 0.541742 0.739653
vt 0.541742 0.691702
vt 0.621476 0.691702
vt 0.462009 0.739653
vt 0.462009 0.691702
vt 0.480856 0.732187
vt 0.415847 0.733784
vt 0.414887 0.694688
vt 0.479896 0.693091
vt 0.350838 0.735381
vt 0.349878 0.696285
vt 0.285829 0.736977
vt 0.284869 0.697882
vt 0.481017 0.809836
vt 0.481017 0.877439
vt 0.435195 0.877439
vt 0.435195 0.809836
vt 0.317229 0.791437
vt 0.242563 0.791437
vt 0.242563 0.680765
vt 0.317229 0.680765
vt 0.363823 0.680765
vt 0.363823 0.755431
vt 0.317229 0.755431
vt 0.242563 0.902109
vt 0.167897 0.902109
vt 0.649765 0.843124
vt 0.649765 0.911827
vt 0.606405 0.911827
vt 0.606405 0.843124
vt 0.407758 0.876254
vt 0.407758 0.774421
vt 0.407758 0.672587
vt 0.476461 0.672587
vt 0.541742 0.883505
vt 0.621476 0.883505
vt 0.621476 0.918539
vt 0.541742 0.918539
vt 0.288710 0.854264
vt 0.223701 0.855861
vt 0.222740 0.816765
vt 0.287750 0.815168
vt 0.221780 0.777670
vt 0.286789 0.776073
vt 0.353719 0.852667
vt 0.352759 0.813572
vt 0.351798 0.774476
vt 0.418728 0.851070
vt 0.417768 0.811975
vt 0.416807 0.772879
vt 0.483737 0.849473
vt 0.482777 0.810378
vt 0.481816 0.771282
vt 0.462009 0.883505
vt 0.382275 0.883505
vt 0.382275 0.835554
vt 0.462009 0.835554
vt 0.386783 0.837673
vt 0.375434 0.735900
vt 0.400815 0.742934
vt 0.375434 0.834527
vt 0.462009 0.787603
vt 0.382275 0.787603
vt 0.541742 0.835554
vt 0.541742 0.787603
vt 0.621476 0.835554
vt 0.621476 0.787603
vt 0.675000 0.687500
vt 0.675000 0.625000
vt 0.701210 0.883505
vt 0.701210 0.835554
vt 0.701210 0.787603
vt 0.701210 0.739653
vt 0.302542 0.883505
vt 0.302542 0.835554
vt 0.302542 0.787603
vt 0.158692 0.857458
vt 0.157732 0.818362
vt 0.156771 0.779267
vt 0.435195 0.900232
vt 0.359355 0.900232
vt 0.359355 0.832630
vt 0.435195 0.832630
vt 0.359355 0.765027
vt 0.435195 0.765027
vt 0.359355 0.697424
vt 0.435195 0.697424
vt 0.747865 0.769681
vt 0.747865 0.659297
vt 0.846260 0.593684
vt 0.846260 0.769681
vt 0.644737 0.769681
vt 0.644737 0.593684
vt 0.483687 0.738172
vt 0.481406 0.876708
vt 0.322758 0.837673
vt 0.322758 0.780514
vt 0.349096 0.780514
vt 0.349096 0.837673
vt 0.349096 0.742627
vt 0.375434 0.742627
vt 0.375434 0.837673
vt 0.485527 0.861192
vt 0.231627 0.733480
vt 0.237560 0.781839
vt 0.472259 0.753046
vt 0.301911 0.734912
vt 0.301911 0.799078
vt 0.286646 0.799078
vt 0.286646 0.734912
vt 0.725000 0.625000
vt 0.725000 0.687500
vt 0.435195 0.809836
vt 0.435195 0.697424
vt 0.511035 0.809836
vt 0.511035 0.877439
vt 0.578637 0.697424
vt 0.578637 0.809836
vt 0.317229 0.902109
vt 0.242563 0.902109
vt 0.284196 0.670513
vt 0.349205 0.668916
vt 0.462009 0.658134
vt 0.541742 0.658134
vt 0.317229 0.830097
vt 0.363823 0.830097
vt 0.545164 0.672587
vt 0.865505 0.273998
vt 0.865505 0.163614
vt 0.937396 0.163614
vt 0.937396 0.273998
vt 0.289412 0.882829
vt 0.224402 0.884425
vt 0.651150 0.774421
vt 0.651150 0.843124
vt 0.606405 0.843124
vt 0.606405 0.774421
vt 0.613867 0.774421
vt 0.545164 0.774421
vt 0.613867 0.672587
vt 0.272516 0.821606
vt 0.273947 0.734718
vt 0.484417 0.877154
vt 0.419408 0.878751
vt 0.382275 0.917455
vt 0.302542 0.917455
vt 0.534353 0.940836
vt 0.534353 0.830452
vt 0.632748 0.830452
vt 0.632748 0.940836
vt 0.252285 0.787603
vt 0.252285 0.739653
vt 0.637481 0.654455
vt 0.637481 0.830452
vt 0.534353 0.830452
vt 0.534353 0.720068
vt 0.521832 0.731180
vt 0.522793 0.770276
s 0
usemtl Material.080
f 24/1/1 29/2/1 4/3/1 3/4/1
f 8/5/2 15/6/2 7/7/2 6/8/2
f 16/9/3 23/10/3 2/11/3 1/12/3
f 59/13/4 30/14/4 5/15/4 19/16/4
f 47/17/5 27/18/5 2/19/5 23/20/5
f 70/21/3 19/22/3 5/23/3 69/24/3
f 38/25/6 41/26/6 21/27/6 20/28/6
f 41/26/6 44/29/6 22/30/6 21/27/6
f 44/29/7 47/17/7 23/20/7 22/30/7
f 26/31/4 50/32/4 16/33/4 1/34/4
f 50/32/4 53/35/4 17/36/4 16/33/4
f 53/35/4 56/37/4 18/38/4 17/36/4
f 56/37/4 59/13/4 19/16/4 18/38/4
f 5/39/8 30/40/8 68/41/8 69/42/8
f 19/43/3 20/44/3 21/45/3 18/46/3
f 22/47/1 17/48/1 72/49/1 75/46/1
f 17/50/3 22/51/3 23/10/3 16/9/3
f 12/52/8 11/53/8 82/54/8 83/55/8
f 11/6/2 12/56/2 13/57/2 10/7/2
f 10/7/2 13/57/2 14/58/2 9/59/2
f 14/60/6 15/61/6 79/62/6 78/63/6
f 9/64/4 8/65/4 57/66/4 54/67/4
f 54/67/4 57/66/4 58/68/4 55/69/4
f 55/69/4 58/68/4 59/13/4 56/37/4
f 10/70/4 9/64/4 54/67/4 51/71/4
f 51/71/4 54/67/4 55/69/4 52/72/4
f 52/72/4 55/69/4 56/37/4 53/35/4
f 11/73/4 10/70/4 51/71/4 48/74/4
f 48/74/4 51/71/4 52/72/4 49/75/4
f 49/75/4 52/72/4 53/35/4 50/32/4
f 3/76/4 11/73/4 48/74/4 24/77/4
f 24/77/4 48/74/4 49/75/4 25/78/4
f 25/78/4 49/75/4 50/32/4 26/31/4
f 13/79/6 12/80/6 45/81/6 42/82/6
f 46/83/3 43/84/3 61/85/3 63/86/3
f 43/87/9 46/88/9 47/17/9 44/29/9
f 14/60/10 13/79/10 42/82/10 39/89/10
f 39/89/11 42/82/11 43/87/11 40/90/11
f 40/90/12 43/87/12 44/29/12 41/26/12
f 15/61/13 14/60/13 39/89/13 36/91/13
f 36/91/6 39/89/6 40/90/6 37/92/6
f 38/93/8 37/94/8 64/94/8 65/93/8
f 7/95/14 15/61/14 36/91/14 33/96/14
f 33/96/15 36/91/15 37/92/15 34/97/15
f 34/97/16 37/92/16 38/25/16 35/98/16
f 12/80/6 4/99/6 29/100/6 45/81/6
f 45/81/17 29/100/17 28/101/17 46/88/17
f 46/88/6 28/101/6 27/18/6 47/17/6
f 8/65/4 6/102/4 32/103/4 57/66/4
f 57/66/4 32/103/4 31/104/4 58/68/4
f 58/68/4 31/104/4 30/14/4 59/13/4
f 6/105/8 7/106/8 33/107/8 32/108/8
f 32/108/8 33/107/8 34/109/8 31/110/8
f 31/110/8 34/109/8 35/111/8 30/112/8
f 1/113/1 2/114/1 27/115/1 26/116/1
f 26/117/3 27/118/3 86/114/3 85/113/3
f 25/119/1 28/120/1 29/2/1 24/1/1
f 60/82/6 62/81/6 63/88/6 61/87/6
f 43/121/8 42/122/8 60/123/8 61/124/8
f 42/124/2 45/125/2 62/126/2 60/127/2
f 45/128/1 46/129/1 63/130/1 62/131/1
f 64/92/6 66/90/6 67/26/6 65/25/6
f 41/132/3 38/133/3 65/134/3 67/135/3
f 40/136/1 41/137/1 67/137/1 66/136/1
f 37/94/2 40/136/2 66/136/2 64/94/2
f 68/21/6 71/24/6 70/138/6 69/139/6
f 38/40/8 20/39/8 70/140/8 71/141/8
f 35/23/3 38/22/3 71/142/3 68/143/3
f 73/144/3 74/145/3 75/44/3 72/43/3
f 17/36/4 18/38/4 73/146/4 72/147/4
f 21/27/6 22/30/6 75/148/6 74/149/6
f 18/150/8 21/49/8 74/48/8 73/151/8
f 77/8/2 78/7/2 79/59/2 76/152/2
f 9/153/1 14/154/1 78/155/1 77/156/1
f 8/65/4 9/64/4 77/157/4 76/158/4
f 15/159/8 8/160/8 76/161/8 79/162/8
f 81/163/2 80/164/2 83/152/2 82/165/2
f 3/4/1 4/3/1 80/166/1 81/167/1
f 11/73/4 3/76/4 81/168/4 82/169/4
f 4/99/6 12/80/6 83/170/6 80/171/6
f 85/172/1 86/173/1 87/174/1 84/175/1
f 27/18/18 28/101/18 87/176/18 86/177/18
f 28/178/2 25/179/2 84/180/2 87/181/2
f 25/78/4 26/31/4 85/182/4 84/183/4
