# Blender 4.0.1
# www.blender.org
mtllib gun.mtl
o full_gun
v 1.200948 0.803677 0.280649
v 1.303266 0.803677 0.280649
v 1.167250 0.903096 0.296636
v 1.269568 0.903096 0.296636
v 1.358714 0.842436 0.280649
v 1.324271 0.944052 0.296636
v 1.361018 0.881349 0.296636
v 1.348780 0.917458 0.296636
v 1.221269 0.806532 0.280649
v 1.220976 0.906039 0.296636
v 1.265583 0.992232 0.296636
v 1.326083 0.987170 0.296636
v 1.216990 0.995174 0.296636
v 1.245253 1.022967 0.271905
v 1.355000 1.019634 0.271905
v 1.151956 1.022042 0.296636
v 1.217903 0.974763 0.296636
v 1.266495 0.971821 0.296636
v 1.325668 0.977297 0.296636
v 1.181763 0.985361 0.296636
v 1.151728 0.972777 0.296636
v 1.045368 1.020230 0.280258
v 1.045140 0.970965 0.296636
v 0.914021 1.020230 0.280258
v 0.913793 0.970965 0.296636
v 1.045140 0.896686 0.296636
v 0.913793 0.896686 0.296636
v 0.844344 0.953745 0.296636
v 0.844344 0.923568 0.296636
v 0.783814 1.018803 0.296636
v 0.783752 0.976762 0.296636
v 0.893488 1.061295 0.280258
v 0.779898 1.059868 0.296636
v 1.004907 1.092698 0.280258
v 0.863643 1.107274 0.296636
v 1.151654 1.092999 0.271905
v 1.363085 1.053822 0.296636
v 1.239521 1.099038 0.271905
v 1.288203 1.105312 0.296636
v 1.045140 0.912232 0.296636
v 0.913793 0.912232 0.296636
v 0.844344 0.929884 0.296636
v 1.172748 0.886876 0.296636
v 1.275066 0.886876 0.296636
v 1.329891 0.927473 0.296636
v 1.350776 0.911567 0.296636
v 1.221024 0.889804 0.296636
v 1.126377 0.972346 0.296636
v 1.126605 1.021611 0.280258
v 1.116752 1.092928 0.280258
v 1.139952 0.951338 0.296636
v 1.114601 0.950907 0.296636
v 1.118816 0.932617 0.296636
v 1.093464 0.932186 0.296636
v 1.172748 0.886876 0.210488
v 1.200948 0.803677 0.226475
v 1.221269 0.806532 0.226475
v 1.303266 0.803677 0.226475
v 1.275066 0.886876 0.210488
v 1.269568 0.903096 0.210488
v 1.220976 0.906039 0.210488
v 1.167250 0.903096 0.210488
v 1.329891 0.927473 0.210488
v 1.324271 0.944052 0.210488
v 1.358714 0.842436 0.226475
v 1.350776 0.911567 0.210488
v 1.348780 0.917458 0.210488
v 1.361018 0.881349 0.210488
v 1.221024 0.889804 0.210488
v 1.326083 0.987170 0.210488
v 1.265583 0.992232 0.210488
v 1.216990 0.995174 0.210488
v 1.217903 0.974763 0.210488
v 1.266495 0.971821 0.210488
v 1.325668 0.977297 0.210488
v 1.355000 1.019634 0.235219
v 1.245253 1.022967 0.235219
v 1.151956 1.022042 0.210488
v 1.181763 0.985361 0.210488
v 1.151728 0.972777 0.210488
v 1.045368 1.020230 0.226866
v 1.045140 0.970965 0.210488
v 1.126377 0.972346 0.210488
v 1.126605 1.021611 0.226866
v 0.914021 1.020230 0.226866
v 0.913793 0.970965 0.210488
v 0.913793 0.896686 0.210488
v 1.045140 0.896686 0.210488
v 1.045140 0.912232 0.210488
v 0.913793 0.912232 0.210488
v 0.844344 0.929884 0.210488
v 0.844344 0.923568 0.210488
v 0.844344 0.953745 0.210488
v 0.783814 1.018803 0.210488
v 0.783752 0.976762 0.210488
v 0.893488 1.061295 0.226866
v 0.779898 1.059868 0.210488
v 1.004907 1.092698 0.226866
v 0.863643 1.107274 0.210488
v 1.151654 1.092999 0.235219
v 1.116752 1.092928 0.226866
v 1.288203 1.105312 0.210488
v 1.239521 1.099038 0.235219
v 1.363085 1.053822 0.210488
v 1.114601 0.950907 0.210488
v 1.139952 0.951338 0.210488
v 1.093464 0.932186 0.210488
v 1.118816 0.932617 0.210488
v 1.176858 0.880286 0.253562
v 1.038646 0.890911 0.253562
v 1.380774 0.874301 0.253562
v 1.378278 0.832153 0.253562
v 0.842067 1.119000 0.253562
v 0.995070 1.103212 0.253562
v 1.229412 0.793266 0.253562
v 1.207401 0.790174 0.253562
v 0.821164 0.926869 0.253562
v 0.821164 0.952712 0.253562
v 0.774401 1.067654 0.253562
v 0.896384 0.890911 0.253562
v 1.342487 0.978222 0.253562
v 1.340974 0.942214 0.253562
v 1.116209 1.103461 0.253562
v 0.821164 0.920028 0.253562
v 1.318222 0.790174 0.253562
v 1.154012 1.103539 0.253562
v 0.896384 0.971363 0.253562
v 1.369681 0.907029 0.253562
v 1.249181 1.110080 0.253562
v 1.301908 1.116874 0.253562
v 1.342936 0.988915 0.253562
v 0.778575 0.977642 0.253562
v 0.778642 1.023177 0.253562
v 1.383013 1.061106 0.253562
v 1.367518 0.913410 0.253562
v 1.374256 1.024077 0.253562
vn -0.0000 -0.0000 -1.0000
vn -0.1081 0.1501 -0.9827
vn 0.3696 0.2494 -0.8951
vn -0.1491 -0.5684 -0.8091
vn -0.0302 -0.6135 -0.7891
vn 0.0054 -0.3155 -0.9489
vn -0.0000 -0.3155 -0.9489
vn -0.0648 -0.1760 -0.9823
vn -0.1326 -0.0395 -0.9904
vn -0.1090 0.2700 -0.9567
vn -0.2398 -0.3204 -0.9164
vn 0.3414 0.4966 -0.7980
vn -0.0157 0.1860 -0.9824
vn 0.0081 0.1899 -0.9818
vn 0.1316 -0.1606 -0.9782
vn 0.3060 -0.1575 -0.9389
vn -0.0000 -0.0000 1.0000
vn -0.1081 0.1501 0.9827
vn 0.3696 0.2494 0.8951
vn -0.1491 -0.5684 0.8091
vn -0.0302 -0.6135 0.7891
vn 0.0054 -0.3155 0.9489
vn -0.0000 -0.3155 0.9489
vn -0.0648 -0.1760 0.9823
vn -0.1326 -0.0395 0.9904
vn -0.1090 0.2700 0.9567
vn -0.2398 -0.3204 0.9164
vn 0.3414 0.4966 0.7980
vn -0.0157 0.1860 0.9824
vn 0.0081 0.1899 0.9818
vn 0.1316 -0.1606 0.9782
vn 0.3060 -0.1575 0.9389
vn 0.0759 0.9867 0.1437
vn -0.8460 0.1510 0.5114
vn -0.1133 -0.9603 0.2551
vn -0.0746 -0.9972 -0.0000
vn -0.1231 0.8761 0.4661
vn 0.8806 -0.0000 0.4739
vn 0.5138 -0.7877 0.3399
vn -0.0170 0.9999 -0.0000
vn -0.0000 0.9911 0.1329
vn -0.9311 0.0391 0.3627
vn -1.0000 -0.0000 -0.0000
vn 0.0019 -0.9302 0.3671
vn 0.9472 0.3163 -0.0521
vn 0.0314 0.9013 0.4320
vn -0.0470 -0.9040 0.4249
vn 0.9990 0.0447 -0.0000
vn 0.3484 0.9001 0.2615
vn -0.0300 0.9995 -0.0000
vn 0.2393 -0.9652 0.1057
vn -0.8848 -0.2999 0.3567
vn 0.0547 -0.9985 -0.0000
vn 0.1886 -0.9427 0.2752
vn -0.8765 0.4814 -0.0000
vn 0.9928 -0.0015 0.1194
vn 0.0597 -0.8688 0.4915
vn 0.8765 -0.4814 -0.0000
vn 0.0487 0.9988 -0.0021
vn -0.5258 -0.7647 0.3726
vn -0.4639 0.6636 0.5869
vn -0.6630 0.7486 -0.0000
vn -0.8182 0.3515 0.4549
vn 0.6630 -0.7486 -0.0000
vn 0.9895 0.0944 0.1092
vn -0.7123 -0.6565 0.2482
vn -0.7538 0.5289 0.3899
vn -0.7538 0.5289 -0.3899
vn -0.7123 -0.6565 -0.2482
vn 0.9895 0.0944 -0.1092
vn -0.8182 0.3515 -0.4549
vn -0.8848 -0.2999 -0.3567
vn -0.4639 0.6636 -0.5869
vn -0.5258 -0.7647 -0.3726
vn 0.0487 0.9988 0.0021
vn 0.0597 -0.8688 -0.4915
vn 0.9928 -0.0015 -0.1194
vn -0.9311 0.0391 -0.3627
vn 0.1886 -0.9427 -0.2752
vn 0.2393 -0.9652 -0.1057
vn 0.3484 0.9001 -0.2615
vn -0.0470 -0.9040 -0.4249
vn 0.0314 0.9013 -0.4320
vn 0.8806 -0.0000 -0.4739
vn 0.9472 0.3163 0.0521
vn 0.0019 -0.9302 -0.3671
vn -0.0000 0.9911 -0.1329
vn 0.5138 -0.7877 -0.3399
vn -0.1231 0.8761 -0.4661
vn -0.1133 -0.9603 -0.2551
vn -0.8460 0.1510 -0.5114
vn 0.0759 0.9867 -0.1437
vt 0.674166 0.626414
vt 0.674106 0.646882
vt 0.735370 0.643172
vt 0.742302 0.622722
vt 0.811423 0.673906
vt 0.847761 0.566693
vt 0.777855 0.517828
vt 0.755581 0.632045
vt 0.765611 0.650586
vt 0.763592 0.671169
vt 0.749618 0.700930
vt 0.613302 0.622722
vt 0.606371 0.643172
vt 0.670232 0.733527
vt 0.669081 0.759261
vt 0.730345 0.755551
vt 0.731496 0.729818
vt 0.806622 0.749170
vt 0.806099 0.736722
vt 0.587089 0.793134
vt 0.704715 0.794301
vt 0.843080 0.790099
vt 0.804338 0.694808
vt 0.586801 0.731023
vt 0.624668 0.746888
vt 0.554839 0.730480
vt 0.452419 0.728739
vt 0.452706 0.790850
vt 0.555127 0.792591
vt 0.286820 0.728739
vt 0.287108 0.790850
vt 0.452419 0.654691
vt 0.452419 0.635090
vt 0.286820 0.635090
vt 0.286820 0.654691
vt 0.199262 0.676945
vt 0.199262 0.707028
vt 0.255644 0.728739
vt 0.193158 0.709594
vt 0.205177 0.785360
vt 0.255758 0.790850
vt 0.194993 0.837133
vt 0.245574 0.842624
vt 0.230772 0.900592
vt 0.300835 0.882215
vt 0.261221 0.842624
vt 0.401695 0.882215
vt 0.542704 0.882505
vt 0.586708 0.882596
vt 0.697488 0.890210
vt 0.758864 0.898118
vt 0.853273 0.833202
vt 0.199262 0.668982
vt 0.648855 0.517828
vt 0.674476 0.521427
vt 0.757831 0.616506
vt 0.766158 0.645840
vt 0.536910 0.793722
vt 0.547675 0.779328
vt 0.557313 0.773669
vt 0.566410 0.791415
vt 0.552846 0.770713
vt 0.554802 0.768723
vt 0.682464 0.608662
vt 0.752723 0.604856
vt 0.745576 0.625944
vt 0.682402 0.629769
vt 0.789385 0.496691
vt 0.861471 0.547080
vt 0.823999 0.657635
vt 0.864467 0.597671
vt 0.851152 0.636956
vt 0.619702 0.604856
vt 0.612555 0.625944
vt 0.678407 0.719116
vt 0.741581 0.715291
vt 0.740394 0.741826
vt 0.677220 0.745651
vt 0.818510 0.722410
vt 0.819049 0.735246
vt 0.713964 0.781784
vt 0.592672 0.780581
vt 0.856643 0.777451
vt 0.816694 0.679189
vt 0.631422 0.732893
vt 0.592375 0.716533
vt 0.559417 0.715973
vt 0.559713 0.780021
vt 0.454100 0.778226
vt 0.453803 0.714177
vt 0.283339 0.778226
vt 0.283042 0.714177
vt 0.453803 0.637821
vt 0.283042 0.637821
vt 0.283042 0.617609
vt 0.453803 0.617609
vt 0.192754 0.691790
vt 0.192754 0.660770
vt 0.131090 0.776371
vt 0.130668 0.721714
vt 0.256645 0.831613
vt 0.104396 0.829758
vt 0.401498 0.872439
vt 0.217844 0.891389
vt 0.546903 0.872738
vt 0.592279 0.872831
vt 0.706513 0.880682
vt 0.867154 0.821897
vt 0.769802 0.888838
vt 0.192754 0.652558
vt 0.656364 0.496691
vt 0.682783 0.500403
vt 0.848556 0.644615
vt 0.530272 0.737807
vt 0.566410 0.738285
vt 0.556652 0.760074
vt 0.546196 0.755251
vt 0.553849 0.765338
vt 0.551989 0.763575
vt 0.445361 0.610102
vt 0.625046 0.596289
vt 0.774724 0.724203
vt 0.789791 0.690565
vt 0.831806 0.693003
vt 0.808814 0.727457
vt 0.388709 0.886108
vt 0.189794 0.906633
vt 0.363595 0.679389
vt 0.363595 0.776845
vt 0.295033 0.776845
vt 0.295033 0.679389
vt 0.664754 0.479136
vt 0.693369 0.483156
vt 0.162619 0.690448
vt 0.162619 0.656849
vt 0.066918 0.839881
vt 0.468085 1.000000
vt 0.260409 0.610102
vt 0.803831 0.623010
vt 0.807205 0.585805
vt 0.852914 0.593677
vt 0.849938 0.624978
vt 0.335970 0.699126
vt 0.335970 0.766367
vt 0.418627 0.769386
vt 0.418627 0.702146
vt 0.546198 0.886432
vt 0.162619 0.647956
vt 0.808829 0.479136
vt 0.595344 0.886533
vt 0.399689 0.782690
vt 0.288160 0.782690
vt 0.288160 0.643025
vt 0.399689 0.643025
vt 0.260409 0.714696
vt 0.798120 0.664156
vt 0.838693 0.663365
vt 0.363595 0.636567
vt 0.295033 0.636567
vt 0.787619 0.903870
vt 0.719070 0.895037
vt 0.808225 0.574787
vt 0.854251 0.584045
vt 0.095830 0.782057
vt 0.095373 0.722858
vt 0.360060 0.654276
vt 0.360060 0.788478
vt 0.296775 0.794943
vt 0.296775 0.671037
vt 0.886906 0.533712
vt 0.799062 0.658904
vt 0.839768 0.657765
vt 0.403098 0.756220
vt 0.314266 0.778486
vt 0.314266 0.662920
vt 0.413451 0.692157
vt 0.812590 0.527843
vt 0.830922 0.543813
vt 0.761197 0.575396
vt 0.791624 0.540139
vt 0.132647 0.837133
vt 0.158533 0.785360
vt 0.124339 0.790875
vt 0.096301 0.846950
vt 0.300398 0.640371
vt 0.333164 0.750019
vt 0.413929 0.773379
vt 0.378439 0.654620
vt 0.872427 0.553729
vt 0.796711 0.500803
vt 0.423345 0.671037
vt 0.423345 0.794943
vt 0.127980 0.709594
vt 0.264872 0.729241
vt 0.093752 0.710704
vt 0.589680 0.895884
vt 0.709666 0.904130
vt 0.760729 0.585128
vt 0.776143 0.912696
vt 0.170038 0.705726
vt 0.264872 0.627810
vt 0.170038 0.664519
vt 0.684742 0.504702
vt 0.170038 0.673144
vt 0.000000 0.836846
vt 0.000000 0.000000
vt 0.389292 0.895471
vt 0.542020 0.895786
vt 0.444232 0.627810
vt 0.223594 0.900592
vt 0.196391 0.915376
vt 0.656992 0.500803
vt 0.618485 0.614414
s 0
g full_gun_gun
usemtl gun
f 47/1/1 10/2/1 4/3/1 44/4/1
f 44/4/2 45/5/2 5/6/2 2/7/2
f 45/8/3 46/9/3 7/10/3 5/11/3
f 43/12/1 3/13/1 10/2/1 47/1/1
f 17/14/1 13/15/1 11/16/1 18/17/1
f 18/17/1 11/16/1 12/18/1 19/19/1
f 13/15/4 16/20/4 14/21/4 11/16/4
f 11/16/5 14/21/5 15/22/5 12/18/5
f 4/3/1 18/17/1 19/19/1 6/23/1
f 10/2/1 17/14/1 18/17/1 4/3/1
f 17/14/1 21/24/1 20/25/1 13/15/1
f 20/25/1 21/24/1 16/20/1 13/15/1
f 48/26/6 23/27/6 22/28/6 49/29/6
f 23/27/7 25/30/7 24/31/7 22/28/7
f 40/32/1 26/33/1 27/34/1 41/35/1
f 41/35/1 42/36/1 28/37/1 25/30/1
f 25/38/8 31/39/8 30/40/8 24/41/8
f 30/40/9 33/42/9 32/43/9 24/41/9
f 33/42/10 35/44/10 34/45/10 32/43/10
f 22/28/1 24/31/1 32/46/1 34/47/1
f 50/48/1 49/29/1 22/28/1 34/47/1
f 16/20/11 36/49/11 14/21/11
f 36/49/1 38/50/1 15/22/1 14/21/1
f 38/50/12 39/51/12 37/52/12 15/22/12
f 27/34/1 29/53/1 42/36/1 41/35/1
f 23/27/1 40/32/1 41/35/1 25/30/1
f 1/54/13 43/12/13 47/1/13 9/55/13
f 6/56/1 8/57/1 46/9/1 45/8/1
f 4/3/1 6/23/1 45/5/1 44/4/1
f 9/55/14 47/1/14 44/4/14 2/7/14
f 26/33/1 40/32/1 3/13/1 43/12/1
f 36/49/15 16/20/15 49/29/15 50/48/15
f 21/24/16 48/26/16 49/29/16 16/20/16
f 21/58/1 51/59/1 52/60/1 48/61/1
f 51/59/1 53/62/1 54/63/1 52/60/1
f 69/64/17 59/65/17 60/66/17 61/67/17
f 59/65/18 58/68/18 65/69/18 63/70/18
f 63/70/19 65/69/19 68/71/19 66/72/19
f 55/73/17 69/64/17 61/67/17 62/74/17
f 73/75/17 74/76/17 71/77/17 72/78/17
f 74/76/17 75/79/17 70/80/17 71/77/17
f 72/78/20 71/77/20 77/81/20 78/82/20
f 71/77/21 70/80/21 76/83/21 77/81/21
f 60/66/17 64/84/17 75/79/17 74/76/17
f 61/67/17 60/66/17 74/76/17 73/75/17
f 73/75/17 72/78/17 79/85/17 80/86/17
f 79/85/17 72/78/17 78/82/17 80/86/17
f 83/87/22 84/88/22 81/89/22 82/90/22
f 82/90/23 81/89/23 85/91/23 86/92/23
f 89/93/17 90/94/17 87/95/17 88/96/17
f 90/94/17 86/92/17 93/97/17 91/98/17
f 86/92/24 85/91/24 94/99/24 95/100/24
f 94/99/25 85/91/25 96/101/25 97/102/25
f 97/102/26 96/101/26 98/103/26 99/104/26
f 81/89/17 98/103/17 96/101/17 85/91/17
f 101/105/17 98/103/17 81/89/17 84/88/17
f 78/82/27 77/81/27 100/106/27
f 100/106/17 77/81/17 76/83/17 103/107/17
f 103/107/28 76/83/28 104/108/28 102/109/28
f 87/95/17 90/94/17 91/98/17 92/110/17
f 82/90/17 86/92/17 90/94/17 89/93/17
f 56/111/29 57/112/29 69/64/29 55/73/29
f 64/84/17 63/70/17 66/72/17 67/113/17
f 60/66/17 59/65/17 63/70/17 64/84/17
f 57/112/30 58/68/30 59/65/30 69/64/30
f 88/96/17 55/73/17 62/74/17 89/93/17
f 100/106/31 101/105/31 84/88/31 78/82/31
f 80/86/32 78/82/32 84/88/32 83/87/32
f 80/114/17 83/115/17 105/116/17 106/117/17
f 106/117/17 105/116/17 107/118/17 108/119/17
f 110/120/33 109/121/33 55/73/33 88/96/33
f 112/122/34 111/123/34 68/124/34 65/125/34
f 114/126/35 113/127/35 99/104/35 98/103/35
f 3/128/36 40/129/36 89/130/36 62/131/36
f 116/132/37 115/133/37 57/112/37 56/111/37
f 118/134/38 117/135/38 91/98/38 93/97/38
f 113/127/39 119/136/39 97/102/39 99/104/39
f 23/137/40 48/137/40 83/137/40 82/137/40
f 120/138/41 110/120/41 88/96/41 87/95/41
f 122/139/42 121/140/42 75/141/42 64/142/42
f 40/143/43 23/144/43 82/145/43 89/146/43
f 123/147/44 114/126/44 98/103/44 101/105/44
f 109/121/45 116/132/45 56/111/45 55/73/45
f 117/135/38 124/148/38 92/110/38 91/98/38
f 115/133/46 125/149/46 58/68/46 57/112/46
f 126/150/47 123/147/47 101/105/47 100/106/47
f 17/151/48 10/152/48 61/153/48 73/154/48
f 124/148/49 120/138/49 87/95/49 92/110/49
f 21/137/50 17/137/50 73/137/50 80/137/50
f 127/155/51 118/134/51 93/97/51 86/92/51
f 111/123/52 128/156/52 66/157/52 68/124/52
f 10/158/53 3/128/53 62/131/53 61/159/53
f 130/160/54 129/161/54 103/107/54 102/109/54
f 51/59/55 21/58/55 80/114/55 106/117/55
f 121/140/42 131/162/42 70/163/42 75/141/42
f 133/164/56 132/165/56 95/100/56 94/99/56
f 129/161/57 126/150/57 100/106/57 103/107/57
f 48/61/58 52/60/58 105/116/58 83/115/58
f 132/165/59 127/155/59 86/92/59 95/100/59
f 134/166/60 130/167/60 102/168/60 104/169/60
f 54/63/40 53/62/40 108/119/40 107/118/40
f 125/149/61 112/170/61 65/69/61 58/68/61
f 53/62/62 51/59/62 106/117/62 108/119/62
f 128/156/52 135/171/52 67/172/52 66/157/52
f 136/173/63 134/174/63 104/175/63 76/176/63
f 52/60/64 54/63/64 107/118/64 105/116/64
f 119/136/65 133/164/65 94/99/65 97/102/65
f 135/171/66 122/139/66 64/142/66 67/172/66
f 131/162/67 136/177/67 76/178/67 70/163/67
f 12/179/68 15/180/68 136/177/68 131/162/68
f 8/57/69 6/56/69 122/139/69 135/171/69
f 33/181/70 30/182/70 133/183/70 119/184/70
f 15/185/71 37/186/71 134/187/71 136/188/71
f 46/9/72 8/57/72 135/171/72 128/156/72
f 2/7/73 5/6/73 112/189/73 125/190/73
f 37/191/74 39/192/74 130/167/74 134/166/74
f 31/193/75 25/30/75 127/194/75 132/195/75
f 38/50/76 36/49/76 126/196/76 129/197/76
f 30/182/77 31/193/77 132/195/77 133/183/77
f 19/198/78 12/179/78 131/162/78 121/140/78
f 39/51/79 38/50/79 129/197/79 130/199/79
f 7/10/72 46/9/72 128/156/72 111/123/72
f 25/30/80 28/37/80 118/200/80 127/194/80
f 29/53/81 27/34/81 120/201/81 124/202/81
f 36/106/82 50/105/82 123/147/82 126/150/82
f 9/55/83 2/7/83 125/190/83 115/203/83
f 42/36/84 29/53/84 124/202/84 117/204/84
f 43/205/85 1/206/85 116/206/85 109/205/85
f 50/48/86 34/47/86 114/207/86 123/208/86
f 6/56/78 19/198/78 121/140/78 122/139/78
f 27/34/87 26/33/87 110/209/87 120/201/87
f 35/210/88 33/181/88 119/184/88 113/211/88
f 28/37/84 42/36/84 117/204/84 118/200/84
f 1/54/89 9/55/89 115/203/89 116/212/89
f 34/47/90 35/210/90 113/211/90 114/207/90
f 5/11/91 7/10/91 111/123/91 112/122/91
f 26/33/92 43/12/92 109/213/92 110/209/92
