# Blender 3.2.2
# www.blender.org
mtllib pcdirectx.mtl
o Cube
v -0.772660 1.052728 1.728382
v -0.772660 2.490129 1.728382
v -0.573293 0.938959 0.100329
v -0.535508 2.321503 -0.271618
v 0.772660 1.052728 1.728382
v 0.772660 2.490129 1.728382
v 0.573293 0.938959 0.100329
v 0.535508 2.321503 -0.271618
v -0.573293 0.938959 1.491066
v -0.866281 2.578737 1.728382
v 0.866281 2.578737 1.728382
v 0.573293 0.938959 1.491066
v -0.772660 1.027566 1.584738
v -0.772660 2.490129 1.584738
v 0.772660 2.490129 1.584738
v 0.772660 1.027566 1.584738
v -0.535508 1.259170 -0.271618
v -0.866281 0.913798 1.728382
v 0.535508 1.259170 -0.271618
v 0.866281 0.913798 1.728382
v -0.574102 0.712510 0.099348
v -0.574102 0.712510 1.492047
v 0.574102 0.712510 0.099348
v 0.574102 0.712510 1.492047
v -0.991608 0.717269 -0.119311
v -0.991608 0.717269 1.710706
v 0.991608 0.717269 -0.119311
v 0.991608 0.717269 1.710706
v -0.669036 2.392055 -0.271618
v -0.669036 1.125641 -0.271618
v 0.669036 1.125641 -0.271618
v 0.669036 2.392055 -0.271618
v -0.535508 2.318988 -0.418019
v -0.535508 1.261685 -0.518159
v 0.535508 1.261685 -0.518159
v 0.535508 2.318988 -0.418019
v -0.772660 1.052728 1.728382
v 0.772660 1.052728 1.728382
v -0.866281 0.913798 1.728382
v 0.866281 0.913798 1.728382
v 0.578688 0.962244 1.728382
v 0.644013 0.962244 1.728382
v 0.580892 1.004282 1.728382
v 0.641810 1.004282 1.728382
v 0.578688 0.962244 1.738547
v 0.644013 0.962244 1.738547
v 0.580892 1.004282 1.738547
v 0.641810 1.004282 1.738547
v -0.991608 0.279046 -0.119311
v -0.991608 0.279046 1.710706
v 0.991608 0.279046 -0.119311
v 0.991608 0.279046 1.710706
vn -0.9952 -0.0000 -0.0981
vn -0.0000 0.9999 -0.0172
vn 0.9952 -0.0000 -0.0981
vn -0.0000 -1.0000 -0.0000
vn 1.0000 0.0036 -0.0000
vn -0.0000 0.9957 -0.0929
vn -0.0000 -0.0000 1.0000
vn -1.0000 -0.0000 -0.0000
vn -0.0000 0.9850 -0.1725
vn 1.0000 -0.0000 -0.0000
vn -0.7360 -0.6618 -0.1427
vn -0.0000 -0.8937 -0.4486
vn -0.0856 -0.9963 -0.0000
vn -0.0000 -0.9944 -0.1054
vn -0.0000 0.9998 -0.0218
vn -1.0000 0.0036 -0.0000
vn -0.0000 0.0043 1.0000
vn -0.0000 0.0043 -1.0000
vn -0.0000 0.9998 0.0218
vn -0.0114 0.9999 -0.0000
vn 0.0114 0.9999 -0.0000
vn -0.0000 -0.0000 -1.0000
vn -0.0000 0.0943 -0.9955
vn -0.0000 -0.9999 -0.0102
vn -0.9986 0.0523 -0.0000
vn 0.9986 0.0523 -0.0000
vn -0.0000 1.0000 -0.0000
vn 0.0856 -0.9963 -0.0000
vn 0.7360 -0.6618 -0.1427
vt 0.388509 0.986491
vt 0.611491 0.986491
vt 0.159387 0.529789
vt 0.598640 0.274948
vt 0.388509 0.763509
vt 0.611491 0.763509
vt 0.340613 0.529789
vt 0.598640 0.475052
vt 0.159387 0.720211
vt 0.625000 0.000000
vt 0.875000 0.750000
vt 0.625000 1.000000
vt 0.625000 0.750000
vt 0.340613 0.720211
vt 0.388509 0.986491
vt 0.611491 0.986491
vt 0.611491 0.763509
vt 0.388509 0.763509
vt 0.401360 0.274948
vt 0.375000 0.000000
vt 0.375000 1.000000
vt 0.125000 0.750000
vt 0.401360 0.475052
vt 0.375000 0.750000
vt 0.159387 0.529789
vt 0.159387 0.720211
vt 0.340613 0.529789
vt 0.340613 0.720211
vt 0.159387 0.529789
vt 0.159387 0.720211
vt 0.340613 0.529789
vt 0.340613 0.720211
vt 0.875000 0.500000
vt 0.625000 0.250000
vt 0.125000 0.500000
vt 0.375000 0.250000
vt 0.375000 0.500000
vt 0.625000 0.500000
vt 0.598640 0.274948
vt 0.401360 0.274948
vt 0.401360 0.475052
vt 0.598640 0.475052
vt 0.388509 0.986491
vt 0.388509 0.763509
vt 0.375000 1.000000
vt 0.375000 0.750000
vt 0.377802 0.992185
vt 0.377802 0.757815
vt 0.385707 0.984279
vt 0.385707 0.765721
vt 0.377802 0.992185
vt 0.377802 0.757815
vt 0.385707 0.984279
vt 0.385707 0.765721
vt 0.159387 0.529789
vt 0.159387 0.720211
vt 0.340613 0.529789
vt 0.340613 0.720211
s 0
f 10/10/1 30/36/1 18/20/1
f 8/8/2 33/39/2 4/4/2
f 31/37/3 11/13/3 20/24/3
f 2/2/4 15/17/4 6/6/4
f 12/14/5 23/27/5 7/7/5
f 29/33/6 11/13/6 32/38/6
f 1/1/7 10/12/7 18/21/7
f 5/5/7 11/13/7 6/6/7
f 2/2/7 11/13/7 10/12/7
f 15/17/7 13/15/7 16/18/7
f 5/5/8 15/17/8 16/18/8
f 5/5/9 13/15/9 1/1/9
f 1/1/10 14/16/10 2/2/10
f 3/3/11 18/22/11 30/35/11
f 3/3/12 31/37/12 7/7/12
f 7/7/13 20/24/13 12/14/13
f 12/14/14 18/22/14 9/9/14
f 22/26/15 28/32/15 24/28/15
f 3/3/16 22/26/16 9/9/16
f 9/9/17 24/28/17 12/14/17
f 7/7/18 21/25/18 3/3/18
f 26/30/7 52/58/7 28/32/7
f 23/27/19 25/29/19 21/25/19
f 23/27/20 28/32/20 27/31/20
f 21/25/21 26/30/21 22/26/21
f 17/19/22 29/34/22 4/4/22
f 19/23/22 30/36/22 17/19/22
f 4/4/22 32/38/22 8/8/22
f 19/23/22 32/38/22 31/37/22
f 33/39/23 35/41/23 34/40/23
f 17/19/8 33/39/8 34/40/8
f 19/23/10 36/42/10 8/8/10
f 17/19/24 35/41/24 19/23/24
f 41/47/25 47/53/25 43/49/25
f 41/47/7 40/46/7 42/48/7
f 43/49/7 38/44/7 37/43/7
f 41/47/7 37/43/7 39/45/7
f 42/48/7 38/44/7 44/50/7
f 47/53/7 46/52/7 48/54/7
f 42/48/4 45/51/4 41/47/4
f 44/50/26 46/52/26 42/48/26
f 43/49/27 48/54/27 44/50/27
f 51/57/4 50/56/4 49/55/4
f 27/31/22 49/55/22 25/29/22
f 28/32/10 51/57/10 27/31/10
f 25/29/8 50/56/8 26/30/8
f 10/10/1 29/34/1 30/36/1
f 8/8/2 36/42/2 33/39/2
f 31/37/3 32/38/3 11/13/3
f 2/2/4 14/16/4 15/17/4
f 12/14/5 24/28/5 23/27/5
f 29/33/6 10/11/6 11/13/6
f 1/1/7 2/2/7 10/12/7
f 5/5/7 20/24/7 11/13/7
f 2/2/7 6/6/7 11/13/7
f 15/17/7 14/16/7 13/15/7
f 5/5/8 6/6/8 15/17/8
f 5/5/9 16/18/9 13/15/9
f 1/1/10 13/15/10 14/16/10
f 3/3/28 9/9/28 18/22/28
f 3/3/12 30/35/12 31/37/12
f 7/7/29 31/37/29 20/24/29
f 12/14/14 20/24/14 18/22/14
f 22/26/15 26/30/15 28/32/15
f 3/3/16 21/25/16 22/26/16
f 9/9/17 22/26/17 24/28/17
f 7/7/18 23/27/18 21/25/18
f 26/30/7 50/56/7 52/58/7
f 23/27/19 27/31/19 25/29/19
f 23/27/20 24/28/20 28/32/20
f 21/25/21 25/29/21 26/30/21
f 17/19/22 30/36/22 29/34/22
f 19/23/22 31/37/22 30/36/22
f 4/4/22 29/34/22 32/38/22
f 19/23/22 8/8/22 32/38/22
f 33/39/23 36/42/23 35/41/23
f 17/19/8 4/4/8 33/39/8
f 19/23/10 35/41/10 36/42/10
f 17/19/24 34/40/24 35/41/24
f 41/47/25 45/51/25 47/53/25
f 41/47/7 39/45/7 40/46/7
f 43/49/7 44/50/7 38/44/7
f 41/47/7 43/49/7 37/43/7
f 42/48/7 40/46/7 38/44/7
f 47/53/7 45/51/7 46/52/7
f 42/48/4 46/52/4 45/51/4
f 44/50/26 48/54/26 46/52/26
f 43/49/27 47/53/27 48/54/27
f 51/57/4 52/58/4 50/56/4
f 27/31/22 51/57/22 49/55/22
f 28/32/10 52/58/10 51/57/10
f 25/29/8 49/55/8 50/56/8
