# Blender 4.0.1
# www.blender.org
mtllib frame.mtl
o door_frame
v 2.528847 0.030616 0.913607
v 2.528847 2.637659 0.913607
v 2.528847 0.030616 0.499553
v 2.528847 2.637659 0.499553
v 2.942900 0.030616 0.913607
v 2.942900 2.637659 0.913607
v 2.942900 0.030616 0.499553
v 2.942900 2.637659 0.499553
v 2.528847 2.341391 0.913607
v 2.528847 2.341391 0.499553
v 2.942900 2.341391 0.499553
v 2.942900 2.341391 0.913607
v 4.311964 2.636960 0.499553
v 4.311964 2.636960 0.913607
v 4.311964 2.347268 0.499553
v 4.311964 2.347268 0.913607
v 4.695917 2.636960 0.499553
v 4.695917 2.636960 0.913607
v 4.695917 2.347268 0.499553
v 4.695917 2.347268 0.913607
v 4.311964 0.026761 0.499553
v 4.311964 0.026761 0.913607
v 4.695917 0.026761 0.499553
v 4.695917 0.026761 0.913607
vn -1.0000 -0.0000 -0.0000
vn -0.0000 -0.0000 -1.0000
vn 0.0005 1.0000 -0.0000
vn -0.0000 -0.0000 1.0000
vn -0.0000 -1.0000 -0.0000
vn -0.0000 1.0000 -0.0000
vn 1.0000 -0.0000 -0.0000
vn 0.0043 -1.0000 -0.0000
vt 0.594827 0.839874
vt 0.594827 0.942050
vt 0.715561 0.942050
vt 0.715561 0.839874
vt 0.825108 0.921018
vt 0.927127 0.921261
vt 0.927469 0.779431
vt 0.825450 0.779187
vt 0.934822 0.783594
vt 0.818912 0.783594
vt 0.818912 0.317779
vt 0.934822 0.317778
vt 0.819136 0.786100
vt 0.938935 0.785809
vt 0.939698 0.932159
vt 0.819898 0.932451
vt 0.125000 0.500000
vt 0.375000 0.500000
vt 0.375000 0.750000
vt 0.125000 0.750000
vt 0.934822 0.924473
vt 0.818912 0.924473
vt 0.719117 0.029754
vt 0.719117 0.830442
vt 0.593820 0.830442
vt 0.593820 0.029754
vt 0.590536 0.818781
vt 0.590535 0.172861
vt 0.706274 0.172861
vt 0.706274 0.818781
vt 0.596923 0.059588
vt 0.596923 0.871362
vt 0.716015 0.871362
vt 0.716015 0.059588
vt 0.594827 0.042937
vt 0.715561 0.042937
vt 0.727791 0.937668
vt 0.618624 0.937668
vt 0.618624 0.031876
vt 0.727791 0.031876
vt 0.931463 0.836699
vt 0.833505 0.836699
vt 0.833505 0.388020
vt 0.931463 0.388020
vt 0.818993 0.302186
vt 0.936133 0.301902
vt 0.928359 0.310469
vt 0.828604 0.310231
vt 0.715561 0.841900
vt 0.715561 0.941809
vt 0.594827 0.941809
vt 0.594827 0.841900
vt 0.928676 0.178950
vt 0.828921 0.178712
vt 0.818286 0.166475
vt 0.935426 0.166190
vt 0.818912 0.187141
vt 0.934822 0.187141
vt 0.596590 0.750000
vt 0.596590 0.500000
vt 0.595629 0.945584
vt 0.708146 0.945584
vt 0.708146 0.035444
vt 0.595629 0.035444
vt 0.596212 0.838165
vt 0.713764 0.838165
vt 0.713764 0.028784
vt 0.596212 0.028784
vt 0.594827 0.041607
vt 0.715561 0.041607
s 0
g door_frame_door
usemtl door
f 9/1/1 2/2/1 4/3/1 10/4/1
f 10/5/2 4/6/2 8/7/2 11/8/2
f 8/9/3 6/10/3 14/11/3 13/12/3
f 12/13/4 6/14/4 2/15/4 9/16/4
f 3/17/5 7/18/5 5/19/5 1/20/5
f 8/9/6 4/21/6 2/22/6 6/10/6
f 5/23/4 12/24/4 9/25/4 1/26/4
f 7/27/7 11/28/7 12/29/7 5/30/7
f 3/31/2 10/32/2 11/33/2 7/34/2
f 1/35/1 9/1/1 10/4/1 3/36/1
f 16/37/1 15/38/1 21/39/1 22/40/1
f 12/41/8 11/42/8 15/43/8 16/44/8
f 6/14/4 12/13/4 16/45/4 14/46/4
f 11/8/2 8/7/2 13/47/2 15/48/2
f 19/49/7 17/50/7 18/51/7 20/52/7
f 15/48/2 13/47/2 17/53/2 19/54/2
f 14/46/4 16/45/4 20/55/4 18/56/4
f 13/12/6 14/11/6 18/57/6 17/58/6
f 22/59/5 21/60/5 23/60/5 24/59/5
f 15/61/2 19/62/2 23/63/2 21/64/2
f 20/65/4 16/66/4 22/67/4 24/68/4
f 19/49/7 20/52/7 24/69/7 23/70/7
