# Blender 4.0.1
# www.blender.org
mtllib chair.mtl
o chair
v 7.614197 0.650574 6.244477
v 7.759620 0.568683 6.109390
v 7.614197 0.650574 5.712984
v 7.759620 0.568683 5.848073
v 8.186352 0.650574 6.244477
v 8.040929 0.568683 6.109390
v 8.186352 0.650574 5.712984
v 8.040929 0.568683 5.848073
v 7.554815 0.658664 5.978730
v 7.725756 0.559521 5.978732
v 8.245733 0.658664 5.978730
v 8.074793 0.559521 5.978732
v 7.900274 0.658664 5.657822
v 7.900274 0.559521 5.816616
v 7.900274 0.658664 6.299639
v 7.900274 0.559521 6.140848
v 7.900274 0.658664 5.978730
v 7.614197 0.650574 6.285933
v 7.614197 0.572622 6.285933
v 8.186352 0.572622 6.285933
v 8.186352 0.650574 6.285933
v 7.900274 0.658664 6.341095
v 7.900274 0.564532 6.341095
v 7.900274 1.411528 6.299639
v 8.186352 1.260455 6.244477
v 7.614197 1.260455 6.244477
v 7.900274 1.411528 6.341095
v 8.186352 1.260455 6.285933
v 7.614197 1.260455 6.285933
v 7.554815 0.564532 5.978730
v 7.614197 0.572622 5.712984
v 7.900274 0.564532 5.657822
v 8.186352 0.572622 5.712984
v 8.245733 0.564532 5.978730
v 8.186352 0.572622 6.244477
v 7.900274 0.564532 6.299639
v 7.614197 0.572622 6.244477
v 7.900275 -0.005902 5.978730
v 7.944762 0.088988 5.978730
v 7.855786 0.088988 5.978730
v 7.900274 0.088988 5.937404
v 7.900274 0.088988 6.020057
v 7.864419 0.091323 5.945423
v 7.936130 0.091323 5.945423
v 7.936130 0.091323 6.012037
v 7.864419 0.091323 6.012037
v 8.281563 0.032508 5.978730
v 7.518987 0.032508 5.978730
v 7.900275 0.032508 5.624539
v 7.900275 0.032508 6.332921
v 7.592973 0.052524 5.693267
v 8.207577 0.052524 5.693267
v 8.207576 0.052524 6.264192
v 7.592974 0.052524 6.264192
v 8.281563 -0.017228 5.978730
v 7.518987 -0.017228 5.978730
v 7.900275 -0.017228 5.624539
v 7.900275 -0.017228 6.332921
v 7.592973 0.002788 5.693267
v 8.207577 0.002788 5.693267
v 8.207576 0.002788 6.264192
v 7.592974 0.002788 6.264192
vn 0.9759 -0.0000 0.2181
vn -0.1893 -0.0000 0.9819
vn -0.9759 -0.0000 -0.2181
vn 0.0283 0.9996 -0.0000
vn -0.0141 -0.9998 -0.0152
vn 0.2268 0.2422 -0.9434
vn -0.9309 0.2573 0.2593
vn -0.0141 -0.9998 0.0152
vn -0.9759 -0.0000 0.2181
vn 0.9759 -0.0000 -0.2181
vn 0.0141 -0.9998 0.0152
vn -0.2268 0.2422 -0.9434
vn 0.9309 0.2573 0.2593
vn 0.0141 -0.9998 -0.0152
vn 0.1893 -0.0000 0.9819
vn 0.1893 -0.0000 -0.9819
vn -0.1893 -0.0000 -0.9819
vn -1.0000 -0.0000 -0.0000
vn -0.0283 0.9996 -0.0000
vn 1.0000 -0.0000 -0.0000
vn 0.4670 -0.8843 -0.0000
vn -0.4670 -0.8843 -0.0000
vn 0.0088 0.9989 0.0455
vn -0.0423 0.9991 0.0095
vn -0.0088 0.9989 -0.0455
vn 0.0423 0.9991 -0.0095
vn 0.0088 0.9989 -0.0455
vn -0.0088 0.9989 0.0455
vn 0.0423 0.9991 0.0095
vn -0.0423 0.9991 -0.0095
vn 0.1653 -0.9859 -0.0263
vn -0.1653 -0.9859 0.0263
vn 0.1653 -0.9859 0.0263
vn -0.0244 -0.9838 0.1776
vn -0.2268 0.2422 0.9434
vn 0.2268 0.2422 0.9434
vn 0.9309 0.2573 -0.2593
vn -0.9309 0.2573 -0.2593
vn 0.9680 -0.0000 -0.2509
vn 0.2183 -0.0000 0.9759
vn -0.2183 -0.0000 0.9759
vn 0.2183 -0.0000 -0.9759
vn 0.0244 -0.9838 -0.1776
vn -0.1653 -0.9859 -0.0263
vn -0.0244 -0.9838 -0.1776
vn 0.0244 -0.9838 0.1776
vn 0.0141 0.9998 -0.0152
vn 0.0141 0.9998 0.0152
vn -0.0141 0.9998 0.0152
vn -0.0141 0.9998 -0.0152
vn -0.9680 -0.0000 -0.2509
vn 0.9680 -0.0000 0.2509
vn -0.2183 -0.0000 -0.9759
vn -0.9680 -0.0000 0.2509
vt 0.848999 0.760904
vt 0.848999 0.572430
vt 0.751001 0.572430
vt 0.751001 0.760904
vt 0.301001 0.808523
vt 0.498999 0.808523
vt 0.498999 0.715287
vt 0.301001 0.715287
vt 0.698999 0.570428
vt 0.698999 0.381953
vt 0.601001 0.381953
vt 0.601001 0.570428
vt 0.501001 0.998999
vt 0.598999 0.998999
vt 0.598999 0.953382
vt 0.501001 0.953382
vt 0.798999 0.858144
vt 0.701001 0.858144
vt 0.701001 0.951380
vt 0.798999 0.951380
vt 0.648999 0.001001
vt 0.601001 0.001001
vt 0.601001 0.379951
vt 0.648999 0.379951
vt 0.598999 0.475189
vt 0.598999 0.429572
vt 0.201001 0.429572
vt 0.201001 0.475189
vt 0.298999 0.858144
vt 0.201001 0.858144
vt 0.201001 0.951380
vt 0.298999 0.951380
vt 0.298999 0.665666
vt 0.298999 0.477191
vt 0.201001 0.477191
vt 0.201001 0.665666
vt 0.301001 0.570428
vt 0.498999 0.570428
vt 0.498999 0.477191
vt 0.301001 0.477191
vt 0.098999 0.762906
vt 0.001001 0.762906
vt 0.001001 0.856142
vt 0.098999 0.856142
vt 0.798999 0.001001
vt 0.751001 0.001001
vt 0.751001 0.379951
vt 0.798999 0.379951
vt 0.698999 0.618047
vt 0.698999 0.572430
vt 0.301001 0.572430
vt 0.301001 0.618047
vt 0.298999 0.667668
vt 0.201001 0.667668
vt 0.201001 0.760904
vt 0.298999 0.760904
vt 0.598999 0.001001
vt 0.401001 0.001001
vt 0.401001 0.379951
vt 0.598999 0.379951
vt 0.301001 0.713285
vt 0.498999 0.713285
vt 0.498999 0.620049
vt 0.301001 0.620049
vt 0.848999 0.570428
vt 0.848999 0.381953
vt 0.751001 0.381953
vt 0.751001 0.570428
vt 0.501001 0.713285
vt 0.698999 0.713285
vt 0.698999 0.620049
vt 0.501001 0.620049
vt 0.898999 0.189475
vt 0.898999 0.001001
vt 0.851001 0.001001
vt 0.851001 0.189475
vt 0.401001 0.998999
vt 0.498999 0.998999
vt 0.498999 0.953382
vt 0.401001 0.953382
vt 0.998999 0.189475
vt 0.998999 0.001001
vt 0.951001 0.001001
vt 0.951001 0.189475
vt 0.898999 0.808523
vt 0.898999 0.762906
vt 0.501001 0.762906
vt 0.501001 0.808523
vt 0.848999 0.379951
vt 0.848999 0.001001
vt 0.801001 0.001001
vt 0.801001 0.379951
vt 0.301001 0.856142
vt 0.698999 0.856142
vt 0.698999 0.810525
vt 0.301001 0.810525
vt 0.198999 0.381953
vt 0.001001 0.381953
vt 0.001001 0.760904
vt 0.198999 0.760904
vt 0.398999 0.379951
vt 0.398999 0.191477
vt 0.001001 0.191477
vt 0.001001 0.379951
vt 0.748999 0.381953
vt 0.701001 0.381953
vt 0.701001 0.760904
vt 0.748999 0.760904
vt 0.398999 0.189475
vt 0.398999 0.001001
vt 0.001001 0.001001
vt 0.001001 0.189475
vt 0.998999 0.665666
vt 0.998999 0.572430
vt 0.951001 0.572430
vt 0.951001 0.665666
vt 0.301001 0.998999
vt 0.398999 0.998999
vt 0.398999 0.953382
vt 0.301001 0.953382
vt 0.998999 0.760904
vt 0.998999 0.667668
vt 0.951001 0.667668
vt 0.951001 0.760904
vt 0.201001 0.998999
vt 0.298999 0.998999
vt 0.298999 0.953382
vt 0.201001 0.953382
vt 0.998999 0.570428
vt 0.998999 0.477191
vt 0.951001 0.477191
vt 0.951001 0.570428
vt 0.601001 0.951380
vt 0.698999 0.951380
vt 0.698999 0.905763
vt 0.601001 0.905763
vt 0.998999 0.475189
vt 0.998999 0.381953
vt 0.951001 0.381953
vt 0.951001 0.475189
vt 0.501001 0.951380
vt 0.598999 0.951380
vt 0.598999 0.905763
vt 0.501001 0.905763
vt 0.572688 0.597635
vt 0.572675 0.597612
vt 0.572875 0.597323
vt 0.572982 0.597525
vt 0.573088 0.597114
vt 0.573061 0.597117
vt 0.572861 0.596828
vt 0.573088 0.596800
vt 0.572649 0.597608
vt 0.572649 0.597294
vt 0.573535 0.597561
vt 0.573528 0.597586
vt 0.573269 0.597598
vt 0.573329 0.597382
vt 0.698999 0.001001
vt 0.651001 0.001001
vt 0.651001 0.379951
vt 0.698999 0.379951
vt 0.598999 0.427570
vt 0.598999 0.381953
vt 0.201001 0.381953
vt 0.201001 0.427570
vt 0.748999 0.001001
vt 0.701001 0.001001
vt 0.701001 0.379951
vt 0.748999 0.379951
vt 0.698999 0.903761
vt 0.698999 0.858144
vt 0.301001 0.858144
vt 0.301001 0.903761
vt 0.572755 0.597141
vt 0.572982 0.597169
vt 0.573088 0.597440
vt 0.573148 0.597224
vt 0.573535 0.597293
vt 0.573354 0.597135
vt 0.572649 0.596984
vt 0.572446 0.596887
vt 0.572446 0.596647
vt 0.572649 0.596743
vt 0.572446 0.597160
vt 0.572423 0.597171
vt 0.572244 0.596984
vt 0.573049 0.597141
vt 0.572755 0.597030
vt 0.572470 0.597171
vt 0.573837 0.599743
vt 0.573837 0.599325
vt 0.572025 0.599325
vt 0.572025 0.599743
vt 0.573332 0.596891
vt 0.573273 0.597135
vt 0.573088 0.597040
vt 0.573088 0.596832
vt 0.573576 0.596949
vt 0.573481 0.597135
vt 0.573576 0.596741
vt 0.573391 0.596647
vt 0.573183 0.596647
vt 0.572755 0.596675
vt 0.572982 0.596647
vt 0.573088 0.597371
vt 0.572244 0.596743
vt 0.572649 0.596877
s 0
g chair_Material.003
usemtl Material.003
f 9/1/1 30/2/1 31/3/1 3/4/1
f 13/5/2 32/6/2 33/7/2 7/8/2
f 11/9/3 34/10/3 35/11/3 5/12/3
f 36/13/4 37/14/4 19/15/4 23/16/4
f 17/17/5 11/18/5 5/19/5 15/20/5
f 2/21/6 16/22/6 42/23/6 46/24/6
f 12/25/7 8/26/7 44/27/7 39/28/7
f 13/29/8 7/30/8 11/31/8 17/32/8
f 7/33/9 33/34/9 34/35/9 11/36/9
f 1/37/10 37/38/10 30/39/10 9/40/10
f 3/41/11 13/42/11 17/43/11 9/44/11
f 16/45/12 6/46/12 45/47/12 42/48/12
f 4/49/13 10/50/13 40/51/13 43/52/13
f 9/53/14 17/54/14 15/55/14 1/56/14
f 1/57/2 15/58/2 24/59/2 26/60/2
f 3/61/15 31/62/15 32/63/15 13/64/15
f 22/65/16 23/66/16 19/67/16 18/68/16
f 21/69/17 20/70/17 23/71/17 22/72/17
f 5/73/18 35/74/18 20/75/18 21/76/18
f 35/77/19 36/78/19 23/79/19 20/80/19
f 37/81/20 1/82/20 18/83/20 19/84/20
f 18/85/20 1/86/20 26/87/20 29/88/20
f 26/89/21 24/90/21 27/91/21 29/92/21
f 24/93/22 25/94/22 28/95/22 27/96/22
f 22/97/16 18/98/16 29/99/16 27/100/16
f 21/101/17 22/102/17 27/103/17 28/104/17
f 5/105/18 21/106/18 28/107/18 25/108/18
f 15/109/15 5/110/15 25/111/15 24/112/15
f 10/113/23 4/114/23 31/115/23 30/116/23
f 14/117/24 8/118/24 33/119/24 32/120/24
f 12/121/25 6/122/25 35/123/25 34/124/25
f 16/125/26 2/126/26 37/127/26 36/128/26
f 2/129/27 10/130/27 30/131/27 37/132/27
f 8/133/28 12/134/28 34/135/28 33/136/28
f 4/137/29 14/138/29 32/139/29 31/140/29
f 6/141/30 16/142/30 36/143/30 35/144/30
f 43/145/31 40/146/31 48/147/31 51/148/31
f 45/149/32 39/150/32 47/151/32 53/152/32
f 40/146/33 46/153/33 54/154/33 48/147/33
f 41/155/34 43/156/34 51/157/34 49/158/34
f 8/159/35 14/160/35 41/161/35 44/162/35
f 14/163/36 4/164/36 43/165/36 41/166/36
f 10/167/37 2/168/37 46/169/37 40/170/37
f 6/171/38 12/172/38 39/173/38 45/174/38
f 48/147/39 54/154/39 62/175/39 56/176/39
f 49/158/40 51/157/40 59/177/40 57/178/40
f 52/179/41 49/158/41 57/178/41 60/180/41
f 54/181/42 50/182/42 58/183/42 62/184/42
f 42/185/43 45/186/43 53/187/43 50/182/43
f 39/150/44 44/188/44 52/189/44 47/151/44
f 46/190/45 42/185/45 50/182/45 54/181/45
f 44/191/46 41/192/46 49/193/46 52/194/46
f 38/195/47 56/196/47 62/197/47 58/198/47
f 57/199/48 59/200/48 56/196/48 38/195/48
f 60/201/49 57/199/49 38/195/49 55/202/49
f 55/202/50 38/195/50 58/198/50 61/203/50
f 53/152/51 47/151/51 55/204/51 61/205/51
f 51/148/52 48/147/52 56/176/52 59/206/52
f 50/182/53 53/187/53 61/207/53 58/183/53
f 47/151/54 52/189/54 60/208/54 55/204/54
