# Blender 4.0.1
# www.blender.org
mtllib ranka.mtl
o ranka
v 0.203470 1.482065 0.018149
v 0.219197 1.488767 -0.089428
v 0.154293 1.408573 -0.066410
v 0.386464 1.349635 -0.060630
v 0.366403 1.335436 0.013646
v 0.350573 1.309156 -0.070946
v 0.342522 1.287788 0.028591
v 0.480129 1.291599 -0.054204
v 0.471694 1.287854 -0.006080
v 0.449994 1.262499 -0.053255
v 0.444764 1.243803 0.007900
v 0.568182 1.279650 -0.076344
v 0.546196 1.265186 0.007461
v 0.510352 1.207662 -0.072530
v 0.513374 1.197694 0.024103
v 0.693422 1.170254 -0.035105
v 0.687372 1.167568 -0.014342
v 0.673348 1.158331 -0.032262
v 0.676446 1.147740 -0.016154
v 0.722003 1.168282 0.003691
v 0.728595 1.119767 -0.052418
v 0.217350 1.495759 -0.033495
v 0.183038 1.379002 -0.023111
v 0.381230 1.347332 -0.027255
v 0.347905 1.280750 -0.024572
v 0.475911 1.289727 -0.030142
v 0.452132 1.238824 -0.028736
v 0.561419 1.276648 -0.037760
v 0.508489 1.180224 -0.023896
v 0.690397 1.168911 -0.024724
v 0.669501 1.128561 -0.022306
v 0.732540 1.106277 -0.031902
v 0.746808 1.182056 -0.068274
v 0.749672 1.132606 -0.042317
v 0.723695 1.081849 -0.039737
v 0.756986 1.137777 -0.058253
v 0.745819 1.130895 -0.029095
v 0.669022 1.046005 -0.026813
v 0.736890 1.177654 -0.034240
v 0.691789 1.108883 -0.006646
v 0.680999 1.142969 -0.058955
v 0.157027 1.410773 0.042001
v 0.378613 1.346181 -0.010567
v 0.473802 1.288791 -0.018111
v 0.414251 1.306849 0.007545
v 0.428571 1.318530 -0.028698
v 0.416632 1.370080 0.012419
v 0.422929 1.351089 0.071004
v 0.467577 1.322606 -0.024705
v 0.450415 1.330455 0.028008
v 0.436451 1.340664 0.053349
v 0.448081 1.352345 -0.065889
v 0.459519 1.345708 -0.059683
v 0.431988 1.366637 -0.045064
v 0.447063 1.351301 -0.010033
vn -0.7620 0.0914 -0.6411
vn 0.2919 0.6147 -0.7328
vn 0.4572 0.5172 -0.7235
vn -0.1760 -0.4646 -0.8678
vn -0.4259 -0.8818 -0.2028
vn -0.2543 -0.3566 -0.8990
vn -0.5635 -0.7977 -0.2149
vn -0.2851 0.2077 0.9357
vn 0.1914 0.5569 0.8082
vn 0.0803 0.3999 0.9130
vn -0.0003 0.9720 0.2348
vn 0.2601 0.9637 -0.0597
vn -0.9473 -0.1968 0.2528
vn -0.5384 -0.4266 0.7267
vn -0.1618 -0.5083 0.8458
vn -0.2686 -0.3855 -0.8828
vn -0.4579 -0.8816 -0.1142
vn 0.1559 0.7141 -0.6825
vn -0.2873 -0.4497 0.8457
vn 0.4624 0.3808 0.8008
vn 0.0952 -0.3540 0.9304
vn 0.6757 0.7013 0.2272
vn 0.5879 0.8088 0.0159
vn 0.6570 0.0820 -0.7494
vn 0.9126 0.3897 0.1237
vn 0.2608 0.5871 0.7664
vn -0.2135 -0.3696 0.9043
vn -0.2446 -0.1727 0.9541
vn 0.0461 0.5823 0.8117
vn 0.3203 0.6057 -0.7284
vn 0.4026 0.8872 0.2253
vn -0.0705 -0.2302 0.9706
vn 0.2461 0.4238 0.8717
vn 0.2462 0.9431 0.2237
vn -0.3754 -0.1456 -0.9153
vn -0.8631 -0.4312 0.2631
vn -0.0746 0.9118 -0.4038
vn 0.4465 0.6107 -0.6540
vn 0.5050 0.8020 0.3190
vn 0.9794 -0.1869 0.0766
vn 0.8239 -0.1891 -0.5342
vn -0.5408 0.1124 -0.8336
vn 0.3050 -0.4413 -0.8439
vn 0.7295 -0.5590 0.3941
vn 0.8698 -0.2480 0.4265
vn -0.4029 -0.9119 0.0780
vn 0.5762 -0.7824 -0.2362
vn 0.1328 0.4814 -0.8664
vn 0.0268 0.7734 -0.6334
vn 0.1844 0.1270 -0.9746
vn -0.1132 0.2557 0.9601
vn 0.0271 0.9860 0.1646
vn 0.5096 -0.1235 0.8515
vn 0.7251 0.6732 0.1451
vn 0.7649 -0.0859 0.6384
vt 0.422190 0.694426
vt 0.375795 0.695971
vt 0.376497 0.604643
vt 0.402746 0.605066
vt 0.413194 0.597606
vt 0.387424 0.557368
vt 0.398244 0.549911
vt 0.298971 0.735374
vt 0.293907 0.728801
vt 0.287938 0.623011
vt 0.289131 0.622385
vt 0.290325 0.621757
vt 0.422849 0.675872
vt 0.254374 0.722390
vt 0.263477 0.615699
vt 0.389594 0.520778
vt 0.399475 0.513330
vt 0.368649 0.555689
vt 0.276419 0.560386
vt 0.294666 0.565584
vt 0.291051 0.594156
vt 0.371468 0.557013
vt 0.370528 0.556572
vt 0.356315 0.578637
vt 0.361800 0.569091
vt 0.315566 0.540486
vt 0.277332 0.531839
vt 0.302368 0.416639
vt 0.314368 0.418323
vt 0.352019 0.522594
vt 0.304201 0.595118
vt 0.283743 0.591055
vt 0.306217 0.593319
vt 0.305209 0.594217
vt 0.318911 0.537727
vt 0.289569 0.391930
vt 0.328911 0.397449
vt 0.315877 0.417098
vt 0.358149 0.450789
vt 0.369409 0.443329
vt 0.348181 0.447473
vt 0.338803 0.389422
vt 0.333857 0.393435
vt 0.318042 0.367589
vt 0.319964 0.366030
vt 0.361122 0.443662
vt 0.328442 0.432790
vt 0.342702 0.416443
vt 0.355398 0.420667
vt 0.300836 0.367004
vt 0.316121 0.369148
vt 0.398035 0.419204
vt 0.369739 0.411165
vt 0.346136 0.418057
vt 0.358825 0.415352
vt 0.344419 0.417250
vt 0.291863 0.412889
vt 0.255130 0.379634
vt 0.317385 0.415874
vt 0.265192 0.528296
vt 0.322264 0.534976
vt 0.287457 0.362227
vt 0.308235 0.591528
vt 0.292712 0.620501
vt 0.293240 0.593030
vt 0.296659 0.564602
vt 0.298653 0.563625
vt 0.272595 0.587176
vt 0.249322 0.702001
vt 0.253233 0.611626
vt 0.299278 0.725226
vt 0.403813 0.600894
vt 0.389235 0.553202
vt 0.374675 0.581159
vt 0.378822 0.605745
vt 0.357305 0.594166
vt 0.357426 0.584482
vt 0.310278 0.606159
vt 0.315753 0.615204
vt 0.310356 0.597211
vt 0.311048 0.597172
vt 0.310687 0.588188
vt 0.306432 0.579194
vt 0.311740 0.597132
vt 0.312657 0.590338
vt 0.354363 0.599951
vt 0.358081 0.584521
vt 0.295662 0.565092
vt 0.379985 0.606296
vt 0.462296 0.536928
vt 0.421517 0.542717
vt 0.496022 0.514844
vt 0.421517 0.465523
vt 0.458087 0.441657
vt 0.513218 0.452646
s 1
usemtl Material.045
f 3/1/1 2/2/2 4/3/3 6/4/4
f 25/5/5 6/4/4 10/6/6 27/7/7
f 22/8/8 1/9/9 5/10/10 43/11/11 24/12/12
f 23/13/13 3/1/1 6/4/4 25/5/5
f 1/9/9 42/14/14 7/15/15 5/10/10
f 27/7/7 10/6/6 14/16/16 29/17/17
f 6/4/4 4/3/3 8/18/18 10/6/6
f 5/10/10 7/15/15 11/19/19 9/20/20 45/21/21
f 44/22/22 26/23/23 53/24/24 49/25/25
f 13/26/26 15/27/27 19/28/28 17/29/29
f 10/6/6 8/18/18 12/30/30 14/16/16
f 9/31/20 11/32/19 15/27/27 13/26/26
f 26/33/23 44/34/22 9/31/20 13/26/26 28/35/31
f 17/29/29 19/28/28 40/36/32 20/37/33
f 28/35/31 13/26/26 17/29/29 30/38/34
f 29/17/17 14/16/16 18/39/35 31/40/36
f 14/16/16 12/30/30 16/41/37 18/39/35
f 33/42/38 39/43/39 34/44/40 36/45/41
f 41/46/42 33/47/38 36/48/41 21/49/43
f 20/37/33 40/36/32 32/50/44 37/51/45
f 39/43/39 20/37/33 37/51/45 34/44/40
f 38/52/46 41/46/42 21/49/43 35/53/47
f 37/54/45 32/55/44 35/53/47 21/49/43 36/48/41 34/56/40
f 31/40/36 18/39/35 41/46/42 38/52/46
f 18/39/35 16/41/37 33/47/38 41/46/42
f 19/28/28 31/57/36 38/58/46 40/36/32
f 16/59/37 30/38/34 39/43/39 33/42/38
f 30/38/34 17/29/29 20/37/33 39/43/39
f 15/27/27 29/60/17 31/57/36 19/28/28
f 12/61/30 28/35/31 30/38/34 16/59/37
f 40/36/32 38/58/46 35/62/47 32/50/44
f 8/63/18 26/33/23 28/35/31 12/61/30
f 4/64/3 24/12/12 46/65/48 26/66/23 8/67/18
f 11/32/19 27/68/7 29/60/17 15/27/27
f 42/14/14 23/69/13 25/70/5 7/15/15
f 2/71/2 22/8/8 24/12/12 4/64/3
f 7/72/15 25/5/5 27/7/7 11/73/19
f 46/74/48 24/75/12 54/76/49 52/77/50
f 43/11/11 5/10/10 48/78/51 47/79/52
f 5/10/10 45/21/21 51/80/53 48/78/51
f 55/81/54 51/80/53 50/82/55 49/83/25
f 52/84/50 55/81/54 49/83/25 53/85/24
f 54/76/49 47/86/52 55/87/54 52/77/50
f 47/79/52 48/78/51 51/80/53 55/81/54
f 26/23/23 46/74/48 52/77/50 53/24/24
f 45/21/21 9/20/20 50/82/55 51/80/53
f 9/20/20 44/88/22 49/83/25 50/82/55
f 24/75/12 43/89/11 47/86/52 54/76/49
f 22/90/8 2/91/2 1/92/9
f 3/93/1 23/94/13 1/92/9 2/91/2
f 42/95/14 1/92/9 23/94/13
